<?xml version="1.0" encoding="UTF-8"?><svg id="Layer_1" xmlns="http://www.w3.org/2000/svg" viewBox="0 0 180 180"><defs><style>.cls-1,.cls-2{fill:#090;}.cls-1,.cls-2,.cls-3{stroke-width:0px;}.cls-2{fill-rule:evenodd;}.cls-3{fill:#fff;}</style></defs><path class="cls-3" d="M0,90c0,.2,0,.4.01.6H0v-.6Z"/><path class="cls-2" d="M180,90c0,49.71-40.29,90-90,90S.33,140.03,0,90.6h91.43V.02c49.05.76,88.56,40.75,88.56,89.98Z"/><path class="cls-3" d="M91.44,0v.02c-.48-.02-.96-.02-1.44-.02h1.44Z"/><path class="cls-3" d="M91.44,0v90.6H0v-.6C0,40.29,40.3,0,90,0h1.44Z"/><polyline class="cls-1" points="38.58 73.12 51.8 32.47 65.03 73.12 30.51 47.96 73.42 47.96"/></svg>