<?xml version="1.0" encoding="UTF-8"?><svg id="Layer_1" xmlns="http://www.w3.org/2000/svg" viewBox="0 0 180 180"><defs><style>.cls-1{stroke:#fcfd07;stroke-linejoin:round;stroke-width:1.79px;}.cls-1,.cls-2{fill:none;}.cls-2,.cls-3,.cls-4{stroke-width:0px;}.cls-3{fill:#fe0000;}.cls-4{fill:#fcfd07;}</style></defs><circle id="blue" class="cls-3" cx="90" cy="90" r="90"/><rect class="cls-2" x=".67" y="38.64" width="178.65" height="102.73"/><path class="cls-1" d="M145.63,58.88h8.94v9.18h-8.94v-9.18Z"/><path class="cls-4" d="M145.65,57.94c-.24,0-.48.07-.67.25-.38.36-.39.96-.03,1.34,2.25,2.21,4.33,4.58,6.56,6.81,1.83,1.83,3.85,3.54,5.43,5.61.58.76,1.18,1.57,1.23,2.55.06,1.29-.71,2.49-1.52,3.42-.5.57-1.05,1.1-1.66,1.55-.21.14-.27.42-.13.63.14.21.44.27.64.13.81-.53,1.55-1.2,2.19-1.93,1.1-1.26,1.96-2.89,1.63-4.61-.22-1.18-.99-2.19-1.67-3.14-.8-1.09-1.81-2.13-2.67-3.08-1.05-1.17-2.08-2.34-3.17-3.48-.86-.9-1.72-1.8-2.58-2.69-.98-1.02-1.99-2.03-2.93-3.08-.18-.19-.41-.27-.66-.28Z"/><path class="cls-4" d="M154.54,57.94c-.24,0-.48.09-.66.28-1.05,1.16-2.16,2.28-3.24,3.41-.87.91-1.74,1.83-2.61,2.74-.97,1.01-1.89,2.07-2.83,3.11-1.02,1.13-2.16,2.35-3.07,3.67-.59.86-1.18,1.76-1.31,2.82-.22,1.78.79,3.41,1.97,4.65.57.6,1.22,1.16,1.91,1.62.21.14.49.08.63-.13.14-.21.08-.49-.13-.63-.71-.52-1.36-1.15-1.91-1.84-.73-.92-1.39-2.09-1.26-3.31.13-1.13.95-2.06,1.63-2.9,1.49-1.84,3.34-3.41,5.01-5.08,2.23-2.23,4.31-4.6,6.56-6.81.36-.37.35-.98-.03-1.34-.19-.18-.43-.26-.67-.25Z"/><path class="cls-4" d="M160.05,54.37c-.68,0-1.32.22-1.93.52-1.19.58-2.04,1.47-3.01,2.36-1.95,1.79-3.73,3.77-5.68,5.56-.37.37-.37.97,0,1.34.37.37.96.37,1.33,0,1.43-1.56,3.02-2.98,4.49-4.51.62-.64,1.2-1.31,1.8-1.97.23-.25.47-.5.7-.75.02-.01.06-.06.04-.04.02-.02.03-.03.04-.04.04-.04.08-.06.13-.1.15-.12.31-.24.47-.35.42-.29.89-.56,1.4-.66.63-.12,1.37,0,1.98.15.57.15,1.13.38,1.63.68.55.33,1.08.75,1.49,1.24.15.2.43.23.63.08.2-.15.25-.43.1-.63-.5-.7-1.19-1.3-1.91-1.76-.61-.39-1.28-.69-1.98-.88-.56-.15-1.14-.25-1.72-.25Z"/><path class="cls-4" d="M155.98,47.82c-.11.02-.23.08-.31.18-.15.2-.1.48.1.63.56.47,1.02,1.08,1.37,1.72.29.54.51,1.12.63,1.72.1.53.19,1.13.08,1.66-.11.55-.42,1.07-.74,1.52-.1.15-.21.28-.32.42-.03.03-.06.07-.08.1-.4.36-.8.75-1.2,1.12-.68.63-1.37,1.24-2.02,1.9-1.34,1.34-2.65,2.74-4.05,4.02-.37.37-.37.97,0,1.34.37.37.96.37,1.33,0,1.79-1.95,3.78-3.73,5.57-5.68,1.43-1.56,3.05-3.05,2.85-5.4-.05-.56-.17-1.12-.35-1.65-.19-.56-.45-1.09-.77-1.59-.46-.72-1.04-1.41-1.74-1.91-.1-.07-.22-.1-.33-.08Z"/><path class="cls-4" d="M139.67,54.39c-.56.05-1.1.17-1.63.35-.56.19-1.1.44-1.6.75-.72.46-1.41,1.06-1.91,1.76-.15.2-.1.48.1.63.2.15.48.12.63-.08.47-.56,1.09-1.03,1.73-1.38.54-.29,1.12-.51,1.72-.63.53-.1,1.13-.17,1.66-.07.55.11,1.06.42,1.51.74.15.1.29.21.43.32.03.03.07.06.1.08.02.01.06.06.04.04.35.39.71.77,1.06,1.16.63.68,1.24,1.37,1.9,2.02,1.34,1.34,2.75,2.65,4.03,4.05.37.37.96.37,1.33,0,.37-.37.37-.97,0-1.34-1.95-1.79-3.71-3.77-5.67-5.56-1.56-1.43-3.06-3.05-5.42-2.85Z"/><path class="cls-4" d="M144.22,47.82c-.11-.02-.25,0-.35.08-.7.5-1.29,1.19-1.74,1.91-.39.61-.69,1.27-.88,1.97-.15.56-.25,1.15-.25,1.73,0,.68.21,1.32.5,1.93.58,1.19,1.48,2.04,2.37,3.01,1.79,1.95,3.77,3.73,5.55,5.68.37.37.96.37,1.33,0,.37-.37.37-.97,0-1.34-1.56-1.43-2.98-3.01-4.51-4.48-.64-.62-1.3-1.21-1.95-1.81-.25-.23-.5-.46-.75-.68,0,0,0-.02-.01-.03-.01-.01-.03-.02-.04-.03-.02-.02-.02-.03-.03-.04-.04-.04-.06-.07-.1-.11-.12-.15-.24-.31-.35-.47-.29-.42-.57-.9-.67-1.41-.12-.63,0-1.37.15-1.98.15-.57.38-1.11.68-1.62.33-.55.75-1.08,1.24-1.49.2-.15.25-.43.1-.63-.07-.1-.18-.16-.29-.18Z"/><path class="cls-4" d="M148.96,56.75h2.26v1.66h-2.26v-1.66Z"/><path class="cls-4" d="M148.5,55.32c0-1.21.71-2.2,1.59-2.2s1.59.98,1.59,2.2-.71,2.2-1.59,2.2-1.59-.98-1.59-2.2Z"/><path class="cls-4" d="M147.87,53.97h4.44v.79h-4.44v-.79Z"/><path class="cls-4" d="M148.6,53.43h2.99v.84h-2.99v-.84Z"/><path class="cls-4" d="M149.14,52.79h1.91v.75h-1.91v-.75Z"/><path class="cls-4" d="M150.08,47.55l.55,5.57h-1.09l.53-5.57Z"/><path class="cls-1" d="M145.63,111.47h8.94v9.18h-8.94v-9.18Z"/><path class="cls-4" d="M145.65,110.53c-.24,0-.48.07-.67.25-.38.36-.39.97-.03,1.34,2.25,2.21,4.33,4.58,6.56,6.81,1.83,1.83,3.85,3.54,5.43,5.61.58.76,1.18,1.57,1.23,2.55.06,1.29-.71,2.49-1.52,3.42-.5.57-1.05,1.1-1.66,1.55-.21.14-.27.42-.13.63.14.21.44.27.64.13.81-.53,1.55-1.2,2.19-1.93,1.1-1.26,1.96-2.89,1.63-4.61-.22-1.18-.99-2.19-1.67-3.14-.8-1.09-1.81-2.13-2.67-3.08-1.05-1.17-2.08-2.34-3.17-3.48-.86-.9-1.72-1.8-2.58-2.69-.98-1.02-1.99-2.03-2.93-3.08-.18-.19-.41-.27-.66-.28Z"/><path class="cls-4" d="M154.54,110.53c-.24,0-.48.09-.66.28-1.05,1.16-2.16,2.28-3.24,3.41-.87.91-1.74,1.83-2.61,2.74-.97,1.01-1.89,2.07-2.83,3.11-1.02,1.13-2.16,2.35-3.07,3.67-.59.86-1.18,1.76-1.31,2.82-.22,1.78.79,3.41,1.97,4.65.57.6,1.22,1.16,1.91,1.62.21.14.49.08.63-.13.14-.21.08-.49-.13-.63-.71-.52-1.36-1.15-1.91-1.84-.73-.92-1.39-2.09-1.26-3.31.13-1.13.95-2.06,1.63-2.9,1.49-1.84,3.34-3.41,5.01-5.08,2.23-2.23,4.31-4.6,6.56-6.81.36-.37.35-.98-.03-1.34-.19-.18-.43-.26-.67-.25Z"/><path class="cls-4" d="M155.98,100.41c-.11.02-.23.08-.31.18-.15.2-.1.48.1.63.56.47,1.02,1.08,1.37,1.72.29.54.51,1.12.63,1.72.1.53.19,1.13.08,1.66-.11.55-.42,1.07-.74,1.52-.1.15-.21.28-.32.42-.03.03-.06.07-.08.1-.4.36-.8.75-1.2,1.12-.68.63-1.37,1.24-2.02,1.9-1.34,1.34-2.65,2.74-4.05,4.02-.37.37-.37.97,0,1.34.37.37.96.37,1.33,0,1.79-1.95,3.78-3.73,5.57-5.68,1.43-1.56,3.05-3.05,2.85-5.4-.05-.56-.17-1.12-.35-1.65-.19-.56-.45-1.09-.77-1.59-.46-.72-1.04-1.41-1.74-1.91-.1-.07-.22-.1-.33-.08Z"/><path class="cls-4" d="M144.22,100.41c-.11-.02-.25,0-.35.08-.7.5-1.29,1.19-1.74,1.91-.39.61-.69,1.27-.88,1.97-.15.56-.25,1.15-.25,1.73,0,.68.21,1.32.5,1.93.58,1.19,1.48,2.04,2.37,3.01,1.79,1.95,3.77,3.73,5.55,5.68.37.37.96.37,1.33,0,.37-.37.37-.97,0-1.34-1.56-1.43-2.98-3.01-4.51-4.48-.64-.62-1.3-1.21-1.95-1.81-.25-.23-.5-.46-.75-.68,0,0,0-.02-.01-.03-.01-.01-.03-.02-.04-.03-.02-.02-.02-.03-.03-.04-.04-.04-.06-.07-.1-.11-.12-.15-.24-.31-.35-.47-.29-.42-.57-.9-.67-1.41-.12-.63,0-1.37.15-1.98.15-.57.38-1.11.68-1.62.33-.55.75-1.08,1.24-1.49.2-.15.25-.43.1-.63-.07-.1-.18-.16-.29-.18Z"/><path class="cls-4" d="M148.96,109.34h2.26v1.66h-2.26v-1.66Z"/><path class="cls-4" d="M148.5,107.92c0-1.21.71-2.2,1.59-2.2s1.59.98,1.59,2.2-.71,2.2-1.59,2.2-1.59-.98-1.59-2.2Z"/><path class="cls-4" d="M147.87,106.56h4.44v.79h-4.44v-.79Z"/><path class="cls-4" d="M150.05,99.89l2.27,6.67h-4.44l2.18-6.67Z"/><path class="cls-1" d="M25.44,58.88h8.94v9.18h-8.94v-9.18Z"/><path class="cls-4" d="M25.46,57.94c-.24,0-.48.07-.67.25-.38.36-.39.96-.03,1.34,2.25,2.21,4.33,4.58,6.56,6.81,1.83,1.83,3.85,3.54,5.43,5.61.58.76,1.18,1.57,1.23,2.55.06,1.29-.71,2.49-1.52,3.42-.5.57-1.05,1.1-1.66,1.55-.21.14-.27.42-.13.63.14.21.42.27.63.13.81-.53,1.57-1.2,2.21-1.93,1.1-1.26,1.96-2.89,1.63-4.61-.22-1.18-.99-2.19-1.67-3.14-.8-1.09-1.81-2.13-2.67-3.08-1.05-1.17-2.1-2.34-3.18-3.48-.86-.9-1.72-1.8-2.58-2.69-.98-1.02-1.97-2.03-2.92-3.08-.18-.19-.42-.27-.66-.28Z"/><path class="cls-4" d="M34.35,57.94c-.24,0-.48.09-.66.28-1.05,1.16-2.16,2.28-3.24,3.41-.87.91-1.74,1.83-2.61,2.74-.97,1.01-1.89,2.07-2.83,3.11-1.02,1.13-2.18,2.35-3.08,3.67-.59.86-1.17,1.76-1.3,2.82-.22,1.78.79,3.41,1.97,4.65.57.6,1.2,1.16,1.9,1.62.21.14.5.08.64-.13.14-.21.08-.49-.13-.63-.71-.52-1.36-1.15-1.91-1.84-.73-.92-1.39-2.09-1.26-3.31.13-1.13.95-2.06,1.63-2.9,1.49-1.84,3.34-3.41,5.01-5.08,2.23-2.23,4.31-4.6,6.56-6.81.36-.37.35-.98-.03-1.34-.19-.18-.43-.26-.67-.25Z"/><path class="cls-4" d="M39.87,54.37c-.68,0-1.32.22-1.93.52-1.19.58-2.05,1.47-3.03,2.36-1.95,1.79-3.71,3.77-5.67,5.56-.37.37-.37.97,0,1.34.37.37.96.37,1.33,0,1.43-1.56,3.02-2.98,4.49-4.51.62-.64,1.2-1.31,1.8-1.97.23-.25.47-.5.7-.75.02-.01.06-.06.04-.04.02-.02.03-.03.04-.04.04-.04.08-.06.13-.1.15-.12.31-.24.47-.35.42-.29.89-.56,1.4-.66.63-.12,1.37,0,1.98.15.57.15,1.13.38,1.63.68.55.33,1.08.75,1.49,1.24.15.2.43.23.63.08.2-.15.25-.43.1-.63-.5-.7-1.19-1.3-1.91-1.76-.61-.39-1.28-.69-1.98-.88-.56-.15-1.14-.25-1.72-.25Z"/><path class="cls-4" d="M35.78,47.82c-.11.02-.22.08-.29.18-.15.2-.1.48.1.63.56.47,1.02,1.08,1.37,1.72.29.54.51,1.12.63,1.72.1.53.19,1.13.08,1.66-.11.55-.42,1.07-.74,1.52-.1.15-.22.28-.33.42-.03.03-.04.07-.07.1-.01.02-.07.07-.06.06-.38.35-.76.71-1.14,1.06-.68.63-1.37,1.24-2.02,1.9-1.34,1.34-2.65,2.74-4.05,4.02-.37.37-.37.97,0,1.34.37.37.96.37,1.33,0,1.79-1.95,3.77-3.73,5.56-5.68,1.43-1.56,3.05-3.05,2.85-5.4-.05-.56-.16-1.12-.33-1.65-.19-.56-.45-1.09-.77-1.59-.46-.72-1.04-1.41-1.74-1.91-.1-.07-.23-.1-.35-.08Z"/><path class="cls-4" d="M19.49,54.39c-.56.05-1.12.17-1.65.35-.56.19-1.09.44-1.59.75-.72.46-1.41,1.06-1.91,1.76-.15.2-.1.48.1.63.2.15.48.12.63-.08.47-.56,1.09-1.03,1.73-1.38.54-.29,1.12-.51,1.72-.63.53-.1,1.13-.17,1.66-.07.55.11,1.06.42,1.51.74.15.1.29.21.43.32.03.03.07.06.1.08.02.01.06.06.04.04.35.39.71.77,1.06,1.16.63.68,1.24,1.37,1.9,2.02,1.34,1.34,2.75,2.65,4.03,4.05.37.37.96.37,1.33,0,.37-.37.37-.97,0-1.34-1.95-1.79-3.73-3.77-5.68-5.56-1.56-1.43-3.05-3.05-5.4-2.85Z"/><path class="cls-4" d="M24.02,47.82c-.11-.02-.23,0-.33.08-.7.5-1.29,1.19-1.74,1.91-.39.61-.69,1.27-.88,1.97-.15.56-.25,1.15-.25,1.73,0,.68.21,1.32.5,1.93.58,1.19,1.47,2.04,2.36,3.01,1.79,1.95,3.78,3.73,5.57,5.68.37.37.96.37,1.33,0,.37-.37.37-.97,0-1.34-1.56-1.43-2.98-3.01-4.51-4.48-.64-.62-1.31-1.21-1.97-1.81-.27-.25-.53-.5-.8-.74-.02-.02-.02-.03-.03-.04-.04-.04-.06-.07-.1-.11-.12-.15-.24-.31-.35-.47-.29-.42-.57-.9-.67-1.41-.12-.63,0-1.37.15-1.98.15-.57.38-1.11.68-1.62.33-.55.75-1.08,1.24-1.49.2-.15.25-.43.1-.63-.07-.1-.19-.16-.31-.18Z"/><path class="cls-4" d="M28.78,56.75h2.26v1.66h-2.26v-1.66Z"/><path class="cls-4" d="M28.31,55.32c0-1.21.71-2.2,1.59-2.2s1.59.98,1.59,2.2-.71,2.2-1.59,2.2-1.59-.98-1.59-2.2Z"/><path class="cls-4" d="M27.68,53.97h4.44v.79h-4.44v-.79Z"/><path class="cls-4" d="M28.41,53.43h2.99v.84h-2.99v-.84Z"/><path class="cls-4" d="M28.95,52.79h1.91v.75h-1.91v-.75Z"/><path class="cls-4" d="M29.89,47.55l.55,5.57h-1.09l.53-5.57Z"/><path class="cls-1" d="M25.44,111.47h8.94v9.18h-8.94v-9.18Z"/><path class="cls-4" d="M25.46,110.53c-.24,0-.48.07-.67.25-.38.36-.39.97-.03,1.34,2.25,2.21,4.33,4.58,6.56,6.81,1.83,1.83,3.85,3.54,5.43,5.61.58.76,1.18,1.57,1.23,2.55.06,1.29-.71,2.49-1.52,3.42-.5.57-1.05,1.1-1.66,1.55-.21.14-.27.42-.13.63.14.21.42.27.63.13.81-.53,1.57-1.2,2.21-1.93,1.1-1.26,1.96-2.89,1.63-4.61-.22-1.18-.99-2.19-1.67-3.14-.8-1.09-1.81-2.13-2.67-3.08-1.05-1.17-2.1-2.34-3.18-3.48-.86-.9-1.72-1.8-2.58-2.69-.98-1.02-1.97-2.03-2.92-3.08-.18-.19-.42-.27-.66-.28Z"/><path class="cls-4" d="M34.35,110.53c-.24,0-.48.09-.66.28-1.05,1.16-2.16,2.28-3.24,3.41-.87.91-1.74,1.83-2.61,2.74-.97,1.01-1.89,2.07-2.83,3.11-1.02,1.13-2.18,2.35-3.08,3.67-.59.86-1.17,1.76-1.3,2.82-.22,1.78.79,3.41,1.97,4.65.57.6,1.2,1.16,1.9,1.62.21.14.5.08.64-.13.14-.21.08-.49-.13-.63-.71-.52-1.36-1.15-1.91-1.84-.73-.92-1.39-2.09-1.26-3.31.13-1.13.95-2.06,1.63-2.9,1.49-1.84,3.34-3.41,5.01-5.08,2.23-2.23,4.31-4.6,6.56-6.81.36-.37.35-.98-.03-1.34-.19-.18-.43-.26-.67-.25Z"/><path class="cls-4" d="M35.78,100.41c-.11.02-.22.08-.29.18-.15.2-.1.48.1.63.56.47,1.02,1.08,1.37,1.72.29.54.51,1.12.63,1.72.1.53.19,1.13.08,1.66-.11.55-.42,1.07-.74,1.52-.1.15-.22.28-.33.42-.03.03-.04.07-.07.1-.01.02-.07.07-.06.06-.38.35-.76.71-1.14,1.06-.68.63-1.37,1.24-2.02,1.9-1.34,1.34-2.65,2.74-4.05,4.02-.37.37-.37.97,0,1.34.37.37.96.37,1.33,0,1.79-1.95,3.77-3.73,5.56-5.68,1.43-1.56,3.05-3.05,2.85-5.4-.05-.56-.16-1.12-.33-1.65-.19-.56-.45-1.09-.77-1.59-.46-.72-1.04-1.41-1.74-1.91-.1-.07-.23-.1-.35-.08Z"/><path class="cls-4" d="M24.02,100.41c-.11-.02-.23,0-.33.08-.7.5-1.29,1.19-1.74,1.91-.39.61-.69,1.27-.88,1.97-.15.56-.25,1.15-.25,1.73,0,.68.21,1.32.5,1.93.58,1.19,1.47,2.04,2.36,3.01,1.79,1.95,3.78,3.73,5.57,5.68.37.37.96.37,1.33,0,.37-.37.37-.97,0-1.34-1.56-1.43-2.98-3.01-4.51-4.48-.64-.62-1.31-1.21-1.97-1.81-.27-.25-.53-.5-.8-.74-.02-.02-.02-.03-.03-.04-.04-.04-.06-.07-.1-.11-.12-.15-.24-.31-.35-.47-.29-.42-.57-.9-.67-1.41-.12-.63,0-1.37.15-1.98.15-.57.38-1.11.68-1.62.33-.55.75-1.08,1.24-1.49.2-.15.25-.43.1-.63-.07-.1-.19-.16-.31-.18Z"/><path class="cls-4" d="M28.78,109.34h2.26v1.66h-2.26v-1.66Z"/><path class="cls-4" d="M28.31,107.92c0-1.21.71-2.2,1.59-2.2s1.59.98,1.59,2.2-.71,2.2-1.59,2.2-1.59-.98-1.59-2.2Z"/><path class="cls-4" d="M27.68,106.56h4.44v.79h-4.44v-.79Z"/><path class="cls-4" d="M29.86,99.89l2.27,6.67h-4.44l2.18-6.67Z"/><path class="cls-4" d="M90,72.16l-3.08-6.98-7.58.82,4.5-6.15-4.5-6.15,7.58.82,3.08-6.98,3.08,6.98,7.58-.82-4.5,6.15,4.5,6.15-7.58-.82-3.08,6.98Z"/><path class="cls-4" d="M65.67,106.93c0-13.44,10.89-24.33,24.33-24.33s24.33,10.89,24.33,24.33-10.89,24.33-24.33,24.33-24.33-10.89-24.33-24.33Z"/></svg>