<?xml version="1.0" encoding="UTF-8"?><svg id="Layer_1" xmlns="http://www.w3.org/2000/svg" xmlns:xlink="http://www.w3.org/1999/xlink" viewBox="0 0 180 180"><defs><style>.cls-1{stroke-width:.26px;}.cls-1,.cls-2,.cls-3,.cls-4,.cls-5,.cls-6,.cls-7,.cls-8,.cls-9,.cls-10,.cls-11,.cls-12,.cls-13,.cls-14{stroke-linecap:round;stroke-linejoin:round;}.cls-1,.cls-15,.cls-3,.cls-4,.cls-16,.cls-5,.cls-6,.cls-8,.cls-10,.cls-17,.cls-12,.cls-13,.cls-14{stroke:#1d1d1b;}.cls-1,.cls-15,.cls-4,.cls-16,.cls-8,.cls-10,.cls-12,.cls-13,.cls-14{fill:#1d1d1b;}.cls-2{stroke:#ffd207;}.cls-2,.cls-15,.cls-4,.cls-16,.cls-5,.cls-18,.cls-7,.cls-8,.cls-10,.cls-17,.cls-19{fill-rule:evenodd;}.cls-2,.cls-15,.cls-8{stroke-width:.1px;}.cls-2,.cls-9,.cls-11{fill:#ffd207;}.cls-20{fill:#42c0f0;stroke:#fff;stroke-width:.57px;}.cls-3,.cls-21,.cls-6{fill:none;}.cls-3,.cls-5,.cls-17{stroke-width:.79px;}.cls-22{fill:#010101;stroke:#010101;stroke-width:.1px;}.cls-21,.cls-23{stroke-width:0px;}.cls-4,.cls-7,.cls-19{stroke-width:.59px;}.cls-16{stroke-width:.05px;}.cls-5,.cls-23,.cls-17{fill:#fff;}.cls-18{fill:#d90f15;stroke:#e52520;stroke-width:.11px;}.cls-6{stroke-width:.89px;}.cls-7{fill:#fcfeff;stroke:#469fd2;}.cls-24{clip-path:url(#clippath);}.cls-9{stroke-width:.99px;}.cls-9,.cls-11{stroke:#966f14;}.cls-10{stroke-width:.06px;}.cls-11{stroke-width:.49px;}.cls-12{stroke-width:.26px;}.cls-13{stroke-width:.27px;}.cls-19{fill:#0e9e39;stroke:#2e8b78;}.cls-14{stroke-width:.29px;}</style><clipPath id="clippath"><path class="cls-21" d="M128.04,90.28c0,20.96-17.03,37.95-38.04,37.95s-38.04-16.99-38.04-37.95,17.03-37.95,38.04-37.95,38.04,16.99,38.04,37.95h0Z"/></clipPath></defs><path class="cls-18" d="M180,90c0,26.76-11.67,50.79-30.21,67.26-15.89,14.15-36.83,22.74-59.79,22.74s-43.89-8.59-59.79-22.74C11.68,140.79,0,116.76,0,90S11.68,39.21,30.21,22.74C46.11,8.59,67.05,0,90,0s43.9,8.59,59.79,22.74c18.54,16.47,30.21,40.5,30.21,67.26Z"/><path class="cls-22" d="M149.79,22.74v134.52c-15.89,14.15-36.83,22.74-59.79,22.74s-43.89-8.59-59.79-22.74V22.74C46.11,8.59,67.05,0,90,0s43.9,8.59,59.79,22.74Z"/><g id="g7382"><path id="path4548" class="cls-23" d="M142.77,90c0,29.07-23.63,52.64-52.77,52.64s-52.77-23.57-52.77-52.64,23.63-52.64,52.77-52.64,52.77,23.57,52.77,52.64h0Z"/><path id="path1879" class="cls-20" d="M128.04,90.28c0,20.96-17.03,37.95-38.04,37.95s-38.04-16.99-38.04-37.95,17.03-37.95,38.04-37.95,38.04,16.99,38.04,37.95h0Z"/><path id="path6326" class="cls-2" d="M111.02,85.92l12.82-3.67-9.61-.18,7.92-4.84-9.26,2.04,5.88-6.99-8.21,4.6,3.9-8.45-6.76,6.58,1.17-8.56-4.25,8.33-1.52-9.03-1.22,9.44-4.43-8.51.82,9.09-6.76-7.22,4.14,8.68-8.86-5.42,6.47,7.75-8.74-2.51,7.28,4.43-9.79.76,11.77,2.74,17.25.93h0Z"/><path id="path5435" class="cls-9" d="M112.42,85.13c0,5.07-4.11,9.18-9.18,9.18s-9.18-4.11-9.18-9.18,4.11-9.18,9.18-9.18,9.18,4.11,9.18,9.18Z"/><path id="path6324" class="cls-11" d="M110.9,85.13c0,4.2-3.4,7.6-7.6,7.6s-7.6-3.4-7.6-7.6,3.4-7.6,7.6-7.6,7.6,3.4,7.6,7.6Z"/><g class="cls-24"><path id="path2768" class="cls-19" d="M52.15,97.49c-.37-.28,2.48-2.24,3.09-2.61,1.1-.67,2.36-1.7,3.26-2.61.82-.83,1.78-1.5,2.75-2.09,1.24-.76,2.33-2.08,3.26-2.79,1.08-.82,1.75-1.32,2.92-1.92.97-.49,2.17-.35,3.26-.35,1.17,0,2.69,1.34,3.26,1.92.67.68,1.21,1.18,2.06,1.39.81.2,1.91,0,2.75,0h2.75c1.41,0,2.94-.62,4.12-1.22,1.16-.59,2.04-.94,3.43-1.22.94-.19,2.2-.77,3.09-1.22.95-.48,2.02-.87,3.09-.87,2.29,0,4.98,2.44,6.7,3.83,1.11.9,2,1.95,2.75,2.96.69.93-.53,1.57,1.2,1.57.79,0,1.73-1.06,2.06-1.39.9-.91,1.67-1.22,2.92-1.22,1.8,0,2.54.39,3.6-.7.54-.55.71-1.44,1.03-2.09.36-.73,1.62-.46,2.06-.35.66.17,1.28.35,2.23.35.64,0-.84,0,1.03,0,1.14,0,2.02,1.23,2.86,1.57.73.29,1.7.54,1.95,1.04.5,1.01,1.62,2.42,2.23,3.66.42.85,0,3.07,0,4.01v3.66c0,2.08-1.24,3.74-2.06,5.4-.88,1.79-2.8,3.23-3.78,4.88-1.1,1.86-2.71,3.58-3.6,5.4-.74,1.5-1.62,1.1-2.06,2.44-.21.63-2.03,1.65-2.58,2.09-1.64,1.33-3.55,2.06-5.32,3.14-1.21.74-2.22,1.47-3.26,2.26-1.39,1.06-3.35,1.17-4.81,1.92-1.99,1.01-3.43,1.22-5.66,1.22h-8.41c-1.66,0-3.39-.59-4.64-1.22-1.52-.77-3.5-1.22-5.15-1.22-1.43,0-3.06-1.56-4.46-1.92-2.11-.54-3.87-1.87-5.66-2.96-1.6-.98-2.37-1.71-3.6-2.96-.99-1-1.75-1.84-2.58-2.96-1.19-1.61-2.14-3-3.26-4.53-.82-1.11-1.3-2.89-2.23-3.83-.59-.6-.6-2.96-1.03-3.83-.31-.63,0-2.1-.17-2.79-.31-1.24-.29-1.17-1.2-2.09-.52-.52-.34-.89-.17-1.74h0Z"/></g><path id="path2772" class="cls-7" d="M65.13,87.83c-.19-.74.77-1.74,1.46-2.26.73-.55,1.28-1.43,1.81-2.14.64-.85,1.25-1.67,1.65-2.47.39-.77.58-1.22.82-2.31.13-.55.39-.34.97-.51.55-.17,1.07-1.54,1.28-1.47.8.27,1.67,1.06,1.92,2.04.21.84.45,1.33.97,2.02.42.56.56,1.14,1.13,1.71.52.52.7,1.89.99,2.47.54,1.08,1.23.81,1.48,2.06.15.74,2.14,2.98,2.14,3.87,0,1.15.16,2.27.33,3.13.29,1.44.24,3.3.87,4.55.58,1.16,1.09,1.91,1.94,3.09.73,1.02,1.42,2.73,2.06,3.44,1.34,1.48,7.87,10.03,12.44,12.98,1.1.71,3.6,1.8,3.38,2.93-.06.32-1-.41-1.94-.93-2.25-.1-3.24-1.85-6.69-3.79-2.46-1.77-7.51-7.8-8.43-9.08-1.23-1.15-1.81-1.64-2.8-2.64-1.26-1.26-4.45-7.98-5.23-9.02-.83-1.1-1.13-2.37-1.69-3.5-.73-1.45-1.26-1.99-2.51-1.05-1.07.81-1.83-.87-2.14-1.65-.42-1.05-.74-2.69-1.4-3.01-.72-.36-1.44.78-2.41.78-.86,0-1.23.81-2.39.75h0Z"/><path id="path3659" class="cls-7" d="M84.72,87.66c.46-.4,2.81-2.21,3.62-2.82,1.11-.83,1.87-.76,3.17-1.28,1.18-.47,1.46-1.13,2.35-2.02.82-.82,1.7-1.66,2.31-2.47.74-.98,1.87-1.81,2.97-2.64.92-.69,2.4-1.79,3.17-1.52.45.15-.04,7.3.12,8.53.22,1.64,1.92,5.49,2.8,6.67,1.21,1.62,1.99,3.58,3.21,5.19,1.98,2.61,2.69,2.56,3.54,4.7.47,1.16,1.04,1.59,1.65,2.8.6,1.2.82,1.68,1.77,2.64.69.69,2.16,1.36,2.76,1.81.64.48,1.28,1.31-.08,1.65-1.29.32-2.61-.65-3.63-1.15-.99-.49-1.68-.85-2.31-1.48-.61-.61-.66-1.97-.99-2.64-.62-1.24-1.69-1.9-2.31-3.13-.64-1.29-2.15-1.76-2.97-3.13-.68-1.13-1.81-1.44-2.35-2.51-.69-1.38-2.16-2.91-2.64-5.52-.84.4-2.88,1.48-3.75.62-1.04-1.04-1.61-2.46-2.31-3.63-.65-1.08-2.35-.64-3.3-.17-1.15.58-2.05.82-3.46.82-.99,0-2.43.74-3.37.68h0Z"/><path id="path3661" class="cls-7" d="M107.23,90.94c-.09-.12.38-.51.65-.78.64-.64,1.41-1.11,2.13-1.68.17-.13.33-.27.49-.41.84-.7,1.49-1.37,2.27-2.14.53-.53,1.07-1.03,1.48-1.65.16-.25.5-.46.78-.54.59-.15,1.15.34,1.61.62.15.09.3.19.45.29.86.55,1.74.97,2.6,1.48.82.49,1.51.94,2.39,1.32.66.28,1.61.38,2.14.91.3.3.39.35.49.78.12.49-.98-.08-1.07-.12-1.07-.53-2.33-.99-3.54-.99-.86,0-1.87-.13-2.68-.33-.51-.13-.96-.42-1.48-.29-.61.15-.58,1.3-.58,1.73,0,1.46.25,2.91.25,4.37,0,.76-.07,1.53-.62.7-.1-.16-.22-.3-.33-.45-.39-.53-.63-1.12-1.03-1.65-.27-.36-.92-.78-1.36-.87-.79-.16-1.83-.08-2.64-.08-.9,0-2.25,0-2.41-.21h0Z"/></g><g id="g7367"><path id="path6817" class="cls-15" d="M71.83,125.18c-2.85,1.7-5.34,4.15-5.47,7.06-.12,2.7,3.37,2.6,4.75,1.79.45,1.91,2.88,2.31,7.12,2.03.56,1.16,2.69,1.13,3.19.09.67,1.16,2.32,1.23,3.46.33.64.86,3.24,1.55,4.26.12.77-1.08,1.54-2.41-.13-6.13-.3-.05-.68-.01-.95-.03,2.16,4.25-1.3,8.85-2.71,3.78-.24-.03-.26.12-.59.11-.54,3.3-3.03,1.34-2.29-.47-.12-.02-.37-.09-.74-.02.02,2.62-4.11,3.13-2.37-.32-.48-.18.18.04-.68-.22-2.32,3.71-8.31,1.36-6.11-.77-.03-.03-.28-.18-.4-.28-2.2,2.03-4.72,1.82-4.49-.26.33-2.88,2.53-5.37,4.13-6.81h0Z"/><path id="path5526" class="cls-12" d="M62.64,128.03c0,.26-.26.47-.59.47s-.59-.21-.59-.47h0c0-.26.26-.47.59-.47.33,0,.59.21.59.47h0Z"/><path id="path5528" class="cls-13" d="M75.86,129.53c0,.27-.27.48-.61.48s-.61-.21-.61-.48h0c0-.27.27-.48.61-.48s.61.21.61.48h0Z"/><path id="path5530" class="cls-1" d="M73.11,129.19c0,.25-.26.45-.57.45s-.57-.2-.57-.45h0c0-.25.26-.45.57-.45s.57.2.57.45h0Z"/><path id="path5532" class="cls-14" d="M87.02,129.89c0,.28-.29.51-.65.51s-.65-.23-.65-.51h0c0-.28.29-.51.65-.51.36,0,.65.23.65.51h0Z"/><path id="path5534" class="cls-8" d="M59.53,125.59c-.6,1.59-2.16,5.57,1.84,5.58,6.41.03,3.6-6.3,3.51-6.3-.27,0-.07,5.6-3.43,5.47-2.63-.11-1.11-3.29-.67-4.45-.42-.18-.72-.27-1.26-.3h0Z"/><path id="path6421" class="cls-8" d="M116.8,121.84c-.94.43-1.11.54-1.93.9,6.45,6.11-.58,4.83-.67,3.13-.44.15-.71.2-1.09.35,1.96,3.72-2.71,3.79-3.14,2.16-.48.22-.05.05-1.02.48,2.77,2.04-1.37,3.07-2.9,2.94-.39-.3-.1-1.21.03-1.69-.6,0-.92-.01-1.28.04-.34,4.27-6,4.78-6.39,4.24-.09-.65.77-1.16.77-1.16l-.88-.52s-.79,1.35-1.41,1.48c-.04-2.14-1.45-2.34-1.79-2.45-4.99,3.16-1.81,6.09.21,4.54.35,3.2-5.18,5.87-6.18,2.36-.86.15-.38.02-1.22.28.45,1.03.79,2.52,3.25,2.51,3.24-.02,5.99-2.88,5.62-5.91.63.08.72-.07.87-.56,2.34,1.44,5.5.15,7.91-2.51,2.53.77,4.38-.47,5.36-1.83,2.39-.06,3.24-.51,3.65-2.48,3.76.44,6.15-.13,2.23-6.32h0ZM95.04,133.34c.29-.1.91.85.97,1.38.07.6-.87.97-1.35.76-1.33-.59.03-1.82.32-2.11.02-.02.03-.03.05-.04h0Z"/><path id="path7333" class="cls-15" d="M95.62,131.47c-.08-.08-.15-1.85-.03-1.92.14-.09,1.08.46,1.23.65.08.1-.69,1.34-.79,1.41-.11.07-.33-.06-.41-.14h0Z"/><path id="path7335" class="cls-15" d="M98.67,128.83c-.32,0-.78,1.4-.73,2.02.01.18,1.12.16,1.22.03.26-.35-.17-2.04-.48-2.05h0Z"/><path id="path7337" class="cls-15" d="M109.3,126.59c-.32-.25.32-.38.5-.93.22-.66-.09-1.65.24-1.56.62.16,1.53.95,1.3,1.61-.21.61-1.62,1.21-2.05.88h0Z"/><path id="path7339" class="cls-15" d="M113.15,132.26c.85-.67,1.23-1.81,1.55-1.67.46.2,1.35.58,1.16.76-.4.38-.81,1.01-1.01,1.03-.76.07-1.88.01-1.7-.13h0Z"/><path id="path7341" class="cls-15" d="M117.42,129.43c.21-.24.86-.44,1.47-.71.85-.37,1.69-.77,1.78-.68.37.37-.01,1.1-.16,1.23-.84.69-2.15.9-2.31.81-.41-.23-.93-.46-.78-.65h0Z"/><path id="path7343" class="cls-15" d="M121.05,130.45c-.13-.23-1.45.15-1.89.47-.12.09-.17.5-.09.81.05.21,1.71-.07,2.14-.34.16-.1-.02-.7-.16-.95h0Z"/></g><g id="g7346"><path id="path6328" class="cls-3" d="M76.16,41.23l2.41.74-1.45,1.43"/><path id="path7215" class="cls-3" d="M74.98,45.37l6.86-2.14"/><path id="path8987" class="cls-3" d="M78.24,48.01l1.43.47-1.37,1.12"/><g id="g3665"><path id="path10765" class="cls-3" d="M93.55,41.59s.12-.4.27-.85c.42-1.19-2.73-.99-3.24-1.01-.65-.03-5.51.22-6.28,2.3-.52,1.4,2.73,2.53,3.46,3.26.52.53,1.65,1.04,1.87,1.98.26,1.15.65,1.95-1.73,3.1-.58.28-1.71.33-2.47-.69-.45-.6-.55-3.02-.55-3.87,0-.38-.42,1.31-.47,1.48-.18.73-1.07,1.39-1.67.63-.66-.83-.67-1.54-1.12-2.33-.29-.51.42,2.21.44,2.47.06.79.05,1.94-1.54,2.8-2.13,1.15-5.07,1.12-5.27-.99-.04-.47.55-1.41,1.1-1.8"/><path id="path1887" class="cls-5" d="M76.22,47.82c.77-.67,2.16-1.37,2.21-1.37,0,0-1.68,1.71-1.92,1.87-.08.05-.36-.43-.29-.49h0Z"/><path id="path2778" class="cls-17" d="M83.55,48.53c-.02.36.1.67-.05,1.05-.04.25-.23.6-.23.83,0,.51.13,1.06.51.75.3-.24.13-1.06-.22-1.76"/></g><path id="path3670" class="cls-6" d="M86.73,42.18c-.36.12-.67.31-1,.48-.01,0-.02.02-.03.03"/><path id="path4557" class="cls-16" d="M88.95,43.93c-.37-.91-.37-1.44-.51-2.11.04-.7.24-.99.73-.96.29.01.32.63.32.85,0,.41-.12.89-.12,1.3.03.44.07,1.18.26,1.66.26.68.66,1.07.46,1.29-.2.23-.79-1.21-1.12-2.03h0Z"/><path id="path1889" class="cls-3" d="M90.75,47.13c-.24-.49,3.65-4.99,2.22-.44-1.43,4.55,4.42,5.13,3.59-1.04-.76,6.95,6.83,6.11,3.91.77-2.15-3.93,1.52-.79,1.52-.79"/><path id="path2781" class="cls-4" d="M90.99,49.38s.36,1.63.93,2.13c.18.16.73.11.88.04.32-.15.26-.54.02-.64-.19-.08-.48.09-.91-.06s-.72-.85-.79-1.03"/><path id="path3701" class="cls-10" d="M91.07,43.19c-.9.1-.06-1.39.83-1.36.95.03.29,1.19,1.35.87.52-.16.89.86.12.92-1.07.07-1.52.2-1.99.66-.5.5-1.41-.04-1-.57.38-.5,1.43-.19,1.86-.64.27-.27-.02-.54-.27-.59-.7-.16-.64.69-.91.72h0Z"/><path id="path4592" class="cls-16" d="M95.42,42.81c.02-.08-.9.32-.85,1.18.08,1.27,1.35.95,1.97.47,1.69.77,2.52-1.71.95-2.78-.16-.11.66,1.93-.17,2.21-.53.18-.74-.99-.83-.99-.13,0-.09.93-.67,1-.76.09-.46-.84-.39-1.11h0Z"/><path id="path5479" class="cls-16" d="M96.21,41.28c-.17-.39-.4-1.15.06-1.64.34-.35.96-.31,1.05.09.15.61-.61.57-.49,1.23.15.89-.24,1.22-.62.32h0Z"/><path id="path6568" class="cls-15" d="M101.66,51.07c-.11,1.47,2.29.95,1.82.12-.07-.11-.71.14-.93-.2-.27-.41,1.09-1.15.73-1.61-.28-.36-1.57,1.06-1.62,1.7h0Z"/><path id="path7019" class="cls-5" d="M104.6,50.75l-1.51-10.47.87,1.48"/><path id="path8791" class="cls-3" d="M105.02,43.11l-.98-1.5"/><path id="path3752" class="cls-8" d="M99.1,41.84c.17-1.07,2.35-1.96,2.38-.84,0,.14-.59.02-1.17.17-.61.17-1.22.72-1.22.67h0Z"/><path id="path4639" class="cls-15" d="M101.01,41.62c-.33-.2-1.51,1.4-1.31,1.76.22.39,2.7-.07,2.63-.42-.08-.42-.69.1-1.11-.24s.34-.77-.22-1.11h0Z"/></g></svg>