<?xml version="1.0" encoding="UTF-8"?>
<svg enable-background="new 0 0 512 512" version="1.1" viewBox="0 0 512 512" xml:space="preserve" xmlns="http://www.w3.org/2000/svg">
<defs><clipPath id="a"><circle r="735"/></clipPath></defs>
<circle cx="256" cy="256" r="256" fill="#009b3a"/>
<g transform="matrix(.81034 0 0 .81034 60.86 43.28)"><rect x="240.81" y="262.51" width="17.143%" height="17.143%" fill="#009b3a" stroke-width=".17143"/><path d="m-57.986 262.51 298.8 190.8 298.8-190.8-298.8-190.8z" fill="#fedf00" stroke-width=".17143"/><circle cx="240.81" cy="262.51" r="126" fill="#002776" stroke-width=".17143"/><path transform="matrix(.17143 0 0 .17143 240.81 262.51)" d="m-2205 1470a1785 1785 0 0 1 3570 0h-105a1680 1680 0 1 0-3360 0z" clip-path="url(#a)" fill="#fff"/><g transform="matrix(.17143 0 0 .17143 168.81 514.51)" fill="#009b3a"><path d="m-206.87-1684.8a35 31.5 83 0 0-8.5308-69.478 35 31.5 83 0 0 8.5308 69.478m-1.5843-12.903a22 18.5 83 0 0-5.3622-43.672 22 18.5 83 0 0 5.3622 43.672" fill-rule="evenodd"/><g transform="rotate(-4 -24305 848.75)"><path d="m-31.5 0h13v-26h28a22 22 0 0 0 0-44h-40zm13-39h27a9 9 0 0 0 0-18h-27z" fill-rule="evenodd"/><path d="m28 0c0-10 0-32-15-32h-19c22 0 22 22 22 32"/></g><path d="m-61.121-1696.7 32.995-0.5759a30 30 0 0 0 29.472-30.519l-0.17452-9.9985a30 30 0 0 0-30.519-29.472l-32.995 0.5759zm12.771-13.225 18.997-0.3316a19 19 0 0 0 18.666-19.329l-0.10471-5.9991a19 19 0 0 0-19.329-18.666l-18.997 0.3316z" fill-rule="evenodd"/><path d="m27.761-1697.6 62.962 2.1987 0.45369-12.992-50.969-1.7798 0.62819-17.989 39.976 1.396 0.41879-11.993-39.976-1.396 0.48859-13.991 47.971 1.6751 0.45369-12.992-59.963-2.0939z"/><path d="m116.57-1693.8 11.954 1.0459 4.1835-47.817 9.7632 49.038 10.958 0.9588 18.13-46.597-4.1835 47.817 11.954 1.0459 6.1009-69.734-17.433-1.5252-18.13 46.597-9.7632-49.038-17.433-1.5252z"/><path d="m261.6-1677.4 51.742 8.8908 2.0322-11.827-39.915-6.8586 2.7096-15.769 32.523 5.5885 2.0322-11.827-32.523-5.5886 1.8628-10.841 38.683 6.647 2.0322-11.827-50.51-8.6792z"/><path d="m394.52-1651.3 12.586 3.255 6.5099-25.172 27.108 7.0107a22 22 0 0 0 11.017-42.598l-38.726-10.015zm22.351-34.503 26.14 6.7603a9 9 0 0 0 4.5068-17.427l-26.14-6.7603z" fill-rule="evenodd"/><g transform="rotate(17.5 5514.4 848.75)"><path d="m-31.5 0h13v-26h28a22 22 0 0 0 0-44h-40zm13-39h27a9 9 0 0 0 0-18h-27z" fill-rule="evenodd"/><path d="m28 0c0-10 0-32-15-32h-19c22 0 22 22 22 32"/></g><path d="m594.48-1590a31.5 35 20.5 0 0 24.515-65.567 31.5 35 20.5 0 0-24.515 65.567m4.5527-12.177a18.5 22 20.5 0 0 15.409-41.214 18.5 22 20.5 0 0-15.409 41.214" fill-rule="evenodd"/><g transform="rotate(23.5 4080.5 848.75)"><clipPath><path d="m-31.5 0v-70h63v70zm31.5-47v12h31.5v-12z"/></clipPath><path d="m0 0a31.5 35 0 0 0 0-70 31.5 35 0 0 0 0 70m0-13a18.5 22 0 0 0 0-44 18.5 22 0 0 0 0 44" fill-rule="evenodd"/><rect x="5" y="-35" width="26.5" height="10"/><rect x="21.5" y="-35" width="10" height="35"/></g><g transform="rotate(26.5 3604.5 848.75)"><path d="m-31.5 0h13v-26h28a22 22 0 0 0 0-44h-40zm13-39h27a9 9 0 0 0 0-18h-27z" fill-rule="evenodd"/><path d="m28 0c0-10 0-32-15-32h-19c22 0 22 22 22 32"/></g><path d="m808.47-1492.9 54.832 31.023 6.4015-11.315-44.388-25.114 8.8636-15.666 34.814 19.697 5.9091-10.444-34.814-19.697 6.8939-12.185 41.777 23.636 6.4015-11.315-52.221-29.545z"/><path d="m910.6-1458.7c-3.7611 5.9038 0.0512 12.482 8.4852 17.855 8.4339 5.373 14.178 5.1788 16.604 1.3889 7.6565-12.018-36.608-29.547-22.964-50.497 11.763-17.999 31.889-3.9914 39.479 0.8443 7.5905 4.8357 19.779 17.343 10.3 31.758l-12.862-8.1939c4.0297-6.3254-0.39642-12.406-7.1436-16.704-6.5363-4.1641-11.847-6.065-15.742 0.05-6.5241 9.7755 36.858 28.224 23.559 49.098-9.8057 15.392-26.867 8.6724-38.253 1.4188-9.699-6.1789-24.191-20.747-14.746-35.48z"/><path d="m985.7-1409c-4.0649 5.6988-0.6021 12.468 7.5391 18.275 8.1411 5.807 13.887 5.9137 16.509 2.256 8.275-11.601-35.011-31.422-20.29-51.63 12.689-17.358 32.054-2.317 39.381 2.9093 7.3271 5.2264 18.844 18.355 8.6236 32.253l-12.415-8.8557c4.3553-6.1059 0.2534-12.41-6.2595-17.055-6.3094-4.5004-11.513-6.6766-15.723-0.7743-7.0268 9.4207 35.33 30.114 20.958 50.263-10.598 14.858-27.284 7.2544-38.275-0.5851-9.3623-6.6781-23.072-21.985-12.869-36.203z"/><path d="m1056.7-1328.5a31.5 35 38.5 0 0 43.576-54.783 31.5 35 38.5 0 0-43.576 54.783m8.0927-10.174a18.5 22 38.5 0 0 27.391-34.435 18.5 22 38.5 0 0-27.391 34.435" fill-rule="evenodd"/></g><g transform="matrix(5.4 0 0 5.4 137.96 239.88)" fill="#fff"><path transform="rotate(18,0,-1)" d="m0-1v1h0.5"/><path d="m0-1 0.30902 0.95106-0.47553 0.15451"/><g transform="rotate(72)"><path transform="rotate(18,0,-1)" d="m0-1v1h0.5"/><path d="m0-1 0.30902 0.95106-0.47553 0.15451"/></g><g transform="rotate(-72)"><path transform="rotate(18,0,-1)" d="m0-1v1h0.5"/><path d="m0-1 0.30902 0.95106-0.47553 0.15451"/></g><g transform="rotate(144)"><path transform="rotate(18,0,-1)" d="m0-1v1h0.5"/><path d="m0-1 0.30902 0.95106-0.47553 0.15451"/></g><g transform="rotate(216)"><path transform="rotate(18,0,-1)" d="m0-1v1h0.5"/><path d="m0-1 0.30902 0.95106-0.47553 0.15451"/></g></g><g transform="matrix(5.4 0 0 5.4 149.1 292.85)" fill="#fff"><path transform="rotate(18,0,-1)" d="m0-1v1h0.5"/><path d="m0-1 0.30902 0.95106-0.47553 0.15451"/><g transform="rotate(72)"><path transform="rotate(18,0,-1)" d="m0-1v1h0.5"/><path d="m0-1 0.30902 0.95106-0.47553 0.15451"/></g><g transform="rotate(-72)"><path transform="rotate(18,0,-1)" d="m0-1v1h0.5"/><path d="m0-1 0.30902 0.95106-0.47553 0.15451"/></g><g transform="rotate(144)"><path transform="rotate(18,0,-1)" d="m0-1v1h0.5"/><path d="m0-1 0.30902 0.95106-0.47553 0.15451"/></g><g transform="rotate(216)"><path transform="rotate(18,0,-1)" d="m0-1v1h0.5"/><path d="m0-1 0.30902 0.95106-0.47553 0.15451"/></g></g><g transform="matrix(4.5 0 0 4.5 133.67 304.17)" fill="#fff"><path transform="rotate(18,0,-1)" d="m0-1v1h0.5"/><path d="m0-1 0.30902 0.95106-0.47553 0.15451"/><g transform="rotate(72)"><path transform="rotate(18,0,-1)" d="m0-1v1h0.5"/><path d="m0-1 0.30902 0.95106-0.47553 0.15451"/></g><g transform="rotate(-72)"><path transform="rotate(18,0,-1)" d="m0-1v1h0.5"/><path d="m0-1 0.30902 0.95106-0.47553 0.15451"/></g><g transform="rotate(144)"><path transform="rotate(18,0,-1)" d="m0-1v1h0.5"/><path d="m0-1 0.30902 0.95106-0.47553 0.15451"/></g><g transform="rotate(216)"><path transform="rotate(18,0,-1)" d="m0-1v1h0.5"/><path d="m0-1 0.30902 0.95106-0.47553 0.15451"/></g></g><g transform="matrix(2.5714 0 0 2.5714 161.44 285.14)" fill="#fff"><path transform="rotate(18,0,-1)" d="m0-1v1h0.5"/><path d="m0-1 0.30902 0.95106-0.47553 0.15451"/><g transform="rotate(72)"><path transform="rotate(18,0,-1)" d="m0-1v1h0.5"/><path d="m0-1 0.30902 0.95106-0.47553 0.15451"/></g><g transform="rotate(-72)"><path transform="rotate(18,0,-1)" d="m0-1v1h0.5"/><path d="m0-1 0.30902 0.95106-0.47553 0.15451"/></g><g transform="rotate(144)"><path transform="rotate(18,0,-1)" d="m0-1v1h0.5"/><path d="m0-1 0.30902 0.95106-0.47553 0.15451"/></g><g transform="rotate(216)"><path transform="rotate(18,0,-1)" d="m0-1v1h0.5"/><path d="m0-1 0.30902 0.95106-0.47553 0.15451"/></g></g><g transform="matrix(4.5 0 0 4.5 175.33 305.37)" fill="#fff"><path transform="rotate(18,0,-1)" d="m0-1v1h0.5"/><path d="m0-1 0.30902 0.95106-0.47553 0.15451"/><g transform="rotate(72)"><path transform="rotate(18,0,-1)" d="m0-1v1h0.5"/><path d="m0-1 0.30902 0.95106-0.47553 0.15451"/></g><g transform="rotate(-72)"><path transform="rotate(18,0,-1)" d="m0-1v1h0.5"/><path d="m0-1 0.30902 0.95106-0.47553 0.15451"/></g><g transform="rotate(144)"><path transform="rotate(18,0,-1)" d="m0-1v1h0.5"/><path d="m0-1 0.30902 0.95106-0.47553 0.15451"/></g><g transform="rotate(216)"><path transform="rotate(18,0,-1)" d="m0-1v1h0.5"/><path d="m0-1 0.30902 0.95106-0.47553 0.15451"/></g></g><g transform="matrix(3.6 0 0 3.6 171.56 317.88)" fill="#fff"><path transform="rotate(18,0,-1)" d="m0-1v1h0.5"/><path d="m0-1 0.30902 0.95106-0.47553 0.15451"/><g transform="rotate(72)"><path transform="rotate(18,0,-1)" d="m0-1v1h0.5"/><path d="m0-1 0.30902 0.95106-0.47553 0.15451"/></g><g transform="rotate(-72)"><path transform="rotate(18,0,-1)" d="m0-1v1h0.5"/><path d="m0-1 0.30902 0.95106-0.47553 0.15451"/></g><g transform="rotate(144)"><path transform="rotate(18,0,-1)" d="m0-1v1h0.5"/><path d="m0-1 0.30902 0.95106-0.47553 0.15451"/></g><g transform="rotate(216)"><path transform="rotate(18,0,-1)" d="m0-1v1h0.5"/><path d="m0-1 0.30902 0.95106-0.47553 0.15451"/></g></g><g transform="matrix(5.4 0 0 5.4 279.9 223.42)" fill="#fff"><path transform="rotate(18,0,-1)" d="m0-1v1h0.5"/><path d="m0-1 0.30902 0.95106-0.47553 0.15451"/><g transform="rotate(72)"><path transform="rotate(18,0,-1)" d="m0-1v1h0.5"/><path d="m0-1 0.30902 0.95106-0.47553 0.15451"/></g><g transform="rotate(-72)"><path transform="rotate(18,0,-1)" d="m0-1v1h0.5"/><path d="m0-1 0.30902 0.95106-0.47553 0.15451"/></g><g transform="rotate(144)"><path transform="rotate(18,0,-1)" d="m0-1v1h0.5"/><path d="m0-1 0.30902 0.95106-0.47553 0.15451"/></g><g transform="rotate(216)"><path transform="rotate(18,0,-1)" d="m0-1v1h0.5"/><path d="m0-1 0.30902 0.95106-0.47553 0.15451"/></g></g><g transform="matrix(5.4 0 0 5.4 329.1 306.74)" fill="#fff"><path transform="rotate(18,0,-1)" d="m0-1v1h0.5"/><path d="m0-1 0.30902 0.95106-0.47553 0.15451"/><g transform="rotate(72)"><path transform="rotate(18,0,-1)" d="m0-1v1h0.5"/><path d="m0-1 0.30902 0.95106-0.47553 0.15451"/></g><g transform="rotate(-72)"><path transform="rotate(18,0,-1)" d="m0-1v1h0.5"/><path d="m0-1 0.30902 0.95106-0.47553 0.15451"/></g><g transform="rotate(144)"><path transform="rotate(18,0,-1)" d="m0-1v1h0.5"/><path d="m0-1 0.30902 0.95106-0.47553 0.15451"/></g><g transform="rotate(216)"><path transform="rotate(18,0,-1)" d="m0-1v1h0.5"/><path d="m0-1 0.30902 0.95106-0.47553 0.15451"/></g></g><g transform="matrix(3.6 0 0 3.6 346.58 307.94)" fill="#fff"><path transform="rotate(18,0,-1)" d="m0-1v1h0.5"/><path d="m0-1 0.30902 0.95106-0.47553 0.15451"/><g transform="rotate(72)"><path transform="rotate(18,0,-1)" d="m0-1v1h0.5"/><path d="m0-1 0.30902 0.95106-0.47553 0.15451"/></g><g transform="rotate(-72)"><path transform="rotate(18,0,-1)" d="m0-1v1h0.5"/><path d="m0-1 0.30902 0.95106-0.47553 0.15451"/></g><g transform="rotate(144)"><path transform="rotate(18,0,-1)" d="m0-1v1h0.5"/><path d="m0-1 0.30902 0.95106-0.47553 0.15451"/></g><g transform="rotate(216)"><path transform="rotate(18,0,-1)" d="m0-1v1h0.5"/><path d="m0-1 0.30902 0.95106-0.47553 0.15451"/></g></g><g transform="matrix(4.5 0 0 4.5 334.24 317.88)" fill="#fff"><path transform="rotate(18,0,-1)" d="m0-1v1h0.5"/><path d="m0-1 0.30902 0.95106-0.47553 0.15451"/><g transform="rotate(72)"><path transform="rotate(18,0,-1)" d="m0-1v1h0.5"/><path d="m0-1 0.30902 0.95106-0.47553 0.15451"/></g><g transform="rotate(-72)"><path transform="rotate(18,0,-1)" d="m0-1v1h0.5"/><path d="m0-1 0.30902 0.95106-0.47553 0.15451"/></g><g transform="rotate(144)"><path transform="rotate(18,0,-1)" d="m0-1v1h0.5"/><path d="m0-1 0.30902 0.95106-0.47553 0.15451"/></g><g transform="rotate(216)"><path transform="rotate(18,0,-1)" d="m0-1v1h0.5"/><path d="m0-1 0.30902 0.95106-0.47553 0.15451"/></g></g><g transform="matrix(4.5 0 0 4.5 303.9 344.28)" fill="#fff"><path transform="rotate(18,0,-1)" d="m0-1v1h0.5"/><path d="m0-1 0.30902 0.95106-0.47553 0.15451"/><g transform="rotate(72)"><path transform="rotate(18,0,-1)" d="m0-1v1h0.5"/><path d="m0-1 0.30902 0.95106-0.47553 0.15451"/></g><g transform="rotate(-72)"><path transform="rotate(18,0,-1)" d="m0-1v1h0.5"/><path d="m0-1 0.30902 0.95106-0.47553 0.15451"/></g><g transform="rotate(144)"><path transform="rotate(18,0,-1)" d="m0-1v1h0.5"/><path d="m0-1 0.30902 0.95106-0.47553 0.15451"/></g><g transform="rotate(216)"><path transform="rotate(18,0,-1)" d="m0-1v1h0.5"/><path d="m0-1 0.30902 0.95106-0.47553 0.15451"/></g></g><g transform="matrix(3.6 0 0 3.6 303.73 356.97)" fill="#fff"><path transform="rotate(18,0,-1)" d="m0-1v1h0.5"/><path d="m0-1 0.30902 0.95106-0.47553 0.15451"/><g transform="rotate(72)"><path transform="rotate(18,0,-1)" d="m0-1v1h0.5"/><path d="m0-1 0.30902 0.95106-0.47553 0.15451"/></g><g transform="rotate(-72)"><path transform="rotate(18,0,-1)" d="m0-1v1h0.5"/><path d="m0-1 0.30902 0.95106-0.47553 0.15451"/></g><g transform="rotate(144)"><path transform="rotate(18,0,-1)" d="m0-1v1h0.5"/><path d="m0-1 0.30902 0.95106-0.47553 0.15451"/></g><g transform="rotate(216)"><path transform="rotate(18,0,-1)" d="m0-1v1h0.5"/><path d="m0-1 0.30902 0.95106-0.47553 0.15451"/></g></g><g transform="matrix(3.6 0 0 3.6 316.41 334.34)" fill="#fff"><path transform="rotate(18,0,-1)" d="m0-1v1h0.5"/><path d="m0-1 0.30902 0.95106-0.47553 0.15451"/><g transform="rotate(72)"><path transform="rotate(18,0,-1)" d="m0-1v1h0.5"/><path d="m0-1 0.30902 0.95106-0.47553 0.15451"/></g><g transform="rotate(-72)"><path transform="rotate(18,0,-1)" d="m0-1v1h0.5"/><path d="m0-1 0.30902 0.95106-0.47553 0.15451"/></g><g transform="rotate(144)"><path transform="rotate(18,0,-1)" d="m0-1v1h0.5"/><path d="m0-1 0.30902 0.95106-0.47553 0.15451"/></g><g transform="rotate(216)"><path transform="rotate(18,0,-1)" d="m0-1v1h0.5"/><path d="m0-1 0.30902 0.95106-0.47553 0.15451"/></g></g><g transform="matrix(4.5 0 0 4.5 326.53 327.99)" fill="#fff"><path transform="rotate(18,0,-1)" d="m0-1v1h0.5"/><path d="m0-1 0.30902 0.95106-0.47553 0.15451"/><g transform="rotate(72)"><path transform="rotate(18,0,-1)" d="m0-1v1h0.5"/><path d="m0-1 0.30902 0.95106-0.47553 0.15451"/></g><g transform="rotate(-72)"><path transform="rotate(18,0,-1)" d="m0-1v1h0.5"/><path d="m0-1 0.30902 0.95106-0.47553 0.15451"/></g><g transform="rotate(144)"><path transform="rotate(18,0,-1)" d="m0-1v1h0.5"/><path d="m0-1 0.30902 0.95106-0.47553 0.15451"/></g><g transform="rotate(216)"><path transform="rotate(18,0,-1)" d="m0-1v1h0.5"/><path d="m0-1 0.30902 0.95106-0.47553 0.15451"/></g></g><g transform="matrix(3.6 0 0 3.6 303.38 331.94)" fill="#fff"><path transform="rotate(18,0,-1)" d="m0-1v1h0.5"/><path d="m0-1 0.30902 0.95106-0.47553 0.15451"/><g transform="rotate(72)"><path transform="rotate(18,0,-1)" d="m0-1v1h0.5"/><path d="m0-1 0.30902 0.95106-0.47553 0.15451"/></g><g transform="rotate(-72)"><path transform="rotate(18,0,-1)" d="m0-1v1h0.5"/><path d="m0-1 0.30902 0.95106-0.47553 0.15451"/></g><g transform="rotate(144)"><path transform="rotate(18,0,-1)" d="m0-1v1h0.5"/><path d="m0-1 0.30902 0.95106-0.47553 0.15451"/></g><g transform="rotate(216)"><path transform="rotate(18,0,-1)" d="m0-1v1h0.5"/><path d="m0-1 0.30902 0.95106-0.47553 0.15451"/></g></g><g transform="matrix(4.5 0 0 4.5 192.81 267.65)" fill="#fff"><path transform="rotate(18,0,-1)" d="m0-1v1h0.5"/><path d="m0-1 0.30902 0.95106-0.47553 0.15451"/><g transform="rotate(72)"><path transform="rotate(18,0,-1)" d="m0-1v1h0.5"/><path d="m0-1 0.30902 0.95106-0.47553 0.15451"/></g><g transform="rotate(-72)"><path transform="rotate(18,0,-1)" d="m0-1v1h0.5"/><path d="m0-1 0.30902 0.95106-0.47553 0.15451"/></g><g transform="rotate(144)"><path transform="rotate(18,0,-1)" d="m0-1v1h0.5"/><path d="m0-1 0.30902 0.95106-0.47553 0.15451"/></g><g transform="rotate(216)"><path transform="rotate(18,0,-1)" d="m0-1v1h0.5"/><path d="m0-1 0.30902 0.95106-0.47553 0.15451"/></g></g><g transform="matrix(3.6 0 0 3.6 275.1 256.17)" fill="#fff"><path transform="rotate(18,0,-1)" d="m0-1v1h0.5"/><path d="m0-1 0.30902 0.95106-0.47553 0.15451"/><g transform="rotate(72)"><path transform="rotate(18,0,-1)" d="m0-1v1h0.5"/><path d="m0-1 0.30902 0.95106-0.47553 0.15451"/></g><g transform="rotate(-72)"><path transform="rotate(18,0,-1)" d="m0-1v1h0.5"/><path d="m0-1 0.30902 0.95106-0.47553 0.15451"/></g><g transform="rotate(144)"><path transform="rotate(18,0,-1)" d="m0-1v1h0.5"/><path d="m0-1 0.30902 0.95106-0.47553 0.15451"/></g><g transform="rotate(216)"><path transform="rotate(18,0,-1)" d="m0-1v1h0.5"/><path d="m0-1 0.30902 0.95106-0.47553 0.15451"/></g></g><g transform="matrix(5.4 0 0 5.4 240.81 319.08)" fill="#fff"><path transform="rotate(18,0,-1)" d="m0-1v1h0.5"/><path d="m0-1 0.30902 0.95106-0.47553 0.15451"/><g transform="rotate(72)"><path transform="rotate(18,0,-1)" d="m0-1v1h0.5"/><path d="m0-1 0.30902 0.95106-0.47553 0.15451"/></g><g transform="rotate(-72)"><path transform="rotate(18,0,-1)" d="m0-1v1h0.5"/><path d="m0-1 0.30902 0.95106-0.47553 0.15451"/></g><g transform="rotate(144)"><path transform="rotate(18,0,-1)" d="m0-1v1h0.5"/><path d="m0-1 0.30902 0.95106-0.47553 0.15451"/></g><g transform="rotate(216)"><path transform="rotate(18,0,-1)" d="m0-1v1h0.5"/><path d="m0-1 0.30902 0.95106-0.47553 0.15451"/></g></g><g transform="matrix(4.5 0 0 4.5 255.38 294.05)" fill="#fff"><path transform="rotate(18,0,-1)" d="m0-1v1h0.5"/><path d="m0-1 0.30902 0.95106-0.47553 0.15451"/><g transform="rotate(72)"><path transform="rotate(18,0,-1)" d="m0-1v1h0.5"/><path d="m0-1 0.30902 0.95106-0.47553 0.15451"/></g><g transform="rotate(-72)"><path transform="rotate(18,0,-1)" d="m0-1v1h0.5"/><path d="m0-1 0.30902 0.95106-0.47553 0.15451"/></g><g transform="rotate(144)"><path transform="rotate(18,0,-1)" d="m0-1v1h0.5"/><path d="m0-1 0.30902 0.95106-0.47553 0.15451"/></g><g transform="rotate(216)"><path transform="rotate(18,0,-1)" d="m0-1v1h0.5"/><path d="m0-1 0.30902 0.95106-0.47553 0.15451"/></g></g><g transform="matrix(4.5 0 0 4.5 240.81 282.74)" fill="#fff"><path transform="rotate(18,0,-1)" d="m0-1v1h0.5"/><path d="m0-1 0.30902 0.95106-0.47553 0.15451"/><g transform="rotate(72)"><path transform="rotate(18,0,-1)" d="m0-1v1h0.5"/><path d="m0-1 0.30902 0.95106-0.47553 0.15451"/></g><g transform="rotate(-72)"><path transform="rotate(18,0,-1)" d="m0-1v1h0.5"/><path d="m0-1 0.30902 0.95106-0.47553 0.15451"/></g><g transform="rotate(144)"><path transform="rotate(18,0,-1)" d="m0-1v1h0.5"/><path d="m0-1 0.30902 0.95106-0.47553 0.15451"/></g><g transform="rotate(216)"><path transform="rotate(18,0,-1)" d="m0-1v1h0.5"/><path d="m0-1 0.30902 0.95106-0.47553 0.15451"/></g></g><g transform="matrix(3.6 0 0 3.6 228.13 294.05)" fill="#fff"><path transform="rotate(18,0,-1)" d="m0-1v1h0.5"/><path d="m0-1 0.30902 0.95106-0.47553 0.15451"/><g transform="rotate(72)"><path transform="rotate(18,0,-1)" d="m0-1v1h0.5"/><path d="m0-1 0.30902 0.95106-0.47553 0.15451"/></g><g transform="rotate(-72)"><path transform="rotate(18,0,-1)" d="m0-1v1h0.5"/><path d="m0-1 0.30902 0.95106-0.47553 0.15451"/></g><g transform="rotate(144)"><path transform="rotate(18,0,-1)" d="m0-1v1h0.5"/><path d="m0-1 0.30902 0.95106-0.47553 0.15451"/></g><g transform="rotate(216)"><path transform="rotate(18,0,-1)" d="m0-1v1h0.5"/><path d="m0-1 0.30902 0.95106-0.47553 0.15451"/></g></g><g transform="matrix(2.5714 0 0 2.5714 234.47 302.79)" fill="#fff"><path transform="rotate(18,0,-1)" d="m0-1v1h0.5"/><path d="m0-1 0.30902 0.95106-0.47553 0.15451"/><g transform="rotate(72)"><path transform="rotate(18,0,-1)" d="m0-1v1h0.5"/><path d="m0-1 0.30902 0.95106-0.47553 0.15451"/></g><g transform="rotate(-72)"><path transform="rotate(18,0,-1)" d="m0-1v1h0.5"/><path d="m0-1 0.30902 0.95106-0.47553 0.15451"/></g><g transform="rotate(144)"><path transform="rotate(18,0,-1)" d="m0-1v1h0.5"/><path d="m0-1 0.30902 0.95106-0.47553 0.15451"/></g><g transform="rotate(216)"><path transform="rotate(18,0,-1)" d="m0-1v1h0.5"/><path d="m0-1 0.30902 0.95106-0.47553 0.15451"/></g></g><g transform="matrix(4.5 0 0 4.5 278.53 347.37)" fill="#fff"><path transform="rotate(18,0,-1)" d="m0-1v1h0.5"/><path d="m0-1 0.30902 0.95106-0.47553 0.15451"/><g transform="rotate(72)"><path transform="rotate(18,0,-1)" d="m0-1v1h0.5"/><path d="m0-1 0.30902 0.95106-0.47553 0.15451"/></g><g transform="rotate(-72)"><path transform="rotate(18,0,-1)" d="m0-1v1h0.5"/><path d="m0-1 0.30902 0.95106-0.47553 0.15451"/></g><g transform="rotate(144)"><path transform="rotate(18,0,-1)" d="m0-1v1h0.5"/><path d="m0-1 0.30902 0.95106-0.47553 0.15451"/></g><g transform="rotate(216)"><path transform="rotate(18,0,-1)" d="m0-1v1h0.5"/><path d="m0-1 0.30902 0.95106-0.47553 0.15451"/></g></g><g transform="matrix(3.6 0 0 3.6 289.33 336.22)" fill="#fff"><path transform="rotate(18,0,-1)" d="m0-1v1h0.5"/><path d="m0-1 0.30902 0.95106-0.47553 0.15451"/><g transform="rotate(72)"><path transform="rotate(18,0,-1)" d="m0-1v1h0.5"/><path d="m0-1 0.30902 0.95106-0.47553 0.15451"/></g><g transform="rotate(-72)"><path transform="rotate(18,0,-1)" d="m0-1v1h0.5"/><path d="m0-1 0.30902 0.95106-0.47553 0.15451"/></g><g transform="rotate(144)"><path transform="rotate(18,0,-1)" d="m0-1v1h0.5"/><path d="m0-1 0.30902 0.95106-0.47553 0.15451"/></g><g transform="rotate(216)"><path transform="rotate(18,0,-1)" d="m0-1v1h0.5"/><path d="m0-1 0.30902 0.95106-0.47553 0.15451"/></g></g><g transform="matrix(3.6 0 0 3.6 268.58 333.14)" fill="#fff"><path transform="rotate(18,0,-1)" d="m0-1v1h0.5"/><path d="m0-1 0.30902 0.95106-0.47553 0.15451"/><g transform="rotate(72)"><path transform="rotate(18,0,-1)" d="m0-1v1h0.5"/><path d="m0-1 0.30902 0.95106-0.47553 0.15451"/></g><g transform="rotate(-72)"><path transform="rotate(18,0,-1)" d="m0-1v1h0.5"/><path d="m0-1 0.30902 0.95106-0.47553 0.15451"/></g><g transform="rotate(144)"><path transform="rotate(18,0,-1)" d="m0-1v1h0.5"/><path d="m0-1 0.30902 0.95106-0.47553 0.15451"/></g><g transform="rotate(216)"><path transform="rotate(18,0,-1)" d="m0-1v1h0.5"/><path d="m0-1 0.30902 0.95106-0.47553 0.15451"/></g></g><g transform="matrix(5.4 0 0 5.4 190.24 329.37)" fill="#fff"><path transform="rotate(18,0,-1)" d="m0-1v1h0.5"/><path d="m0-1 0.30902 0.95106-0.47553 0.15451"/><g transform="rotate(72)"><path transform="rotate(18,0,-1)" d="m0-1v1h0.5"/><path d="m0-1 0.30902 0.95106-0.47553 0.15451"/></g><g transform="rotate(-72)"><path transform="rotate(18,0,-1)" d="m0-1v1h0.5"/><path d="m0-1 0.30902 0.95106-0.47553 0.15451"/></g><g transform="rotate(144)"><path transform="rotate(18,0,-1)" d="m0-1v1h0.5"/><path d="m0-1 0.30902 0.95106-0.47553 0.15451"/></g><g transform="rotate(216)"><path transform="rotate(18,0,-1)" d="m0-1v1h0.5"/><path d="m0-1 0.30902 0.95106-0.47553 0.15451"/></g></g><g transform="matrix(1.8 0 0 1.8 240.81 361.08)" fill="#fff"><path transform="rotate(18,0,-1)" d="m0-1v1h0.5"/><path d="m0-1 0.30902 0.95106-0.47553 0.15451"/><g transform="rotate(72)"><path transform="rotate(18,0,-1)" d="m0-1v1h0.5"/><path d="m0-1 0.30902 0.95106-0.47553 0.15451"/></g><g transform="rotate(-72)"><path transform="rotate(18,0,-1)" d="m0-1v1h0.5"/><path d="m0-1 0.30902 0.95106-0.47553 0.15451"/></g><g transform="rotate(144)"><path transform="rotate(18,0,-1)" d="m0-1v1h0.5"/><path d="m0-1 0.30902 0.95106-0.47553 0.15451"/></g><g transform="rotate(216)"><path transform="rotate(18,0,-1)" d="m0-1v1h0.5"/><path d="m0-1 0.30902 0.95106-0.47553 0.15451"/></g></g></g>
</svg>