<?xml version="1.0" encoding="utf-8"?>
<!-- Generator: Adobe Illustrator 27.0.0, SVG Export Plug-In . SVG Version: 6.00 Build 0)  -->
<svg version="1.1" id="Capa_1" xmlns="http://www.w3.org/2000/svg" xmlns:xlink="http://www.w3.org/1999/xlink" x="0px" y="0px"
	 viewBox="0 0 512 512" style="enable-background:new 0 0 512 512;" xml:space="preserve">
<style type="text/css">
	.st0{fill:none;}
	.st1{fill:#007C30;}
	.st2{fill:#CE1720;}
	.st3{fill:#FFFFFF;}
	.st4{fill:none;stroke:#CE1720;stroke-width:7;}
</style>
<rect x="-0.5" y="85" class="st0" width="513" height="342"/>
<g>
	<path class="st1" d="M0,85h512v342H0V85z"/>
	<path class="st2" d="M0,315h512V85H0"/>
	<path class="st3" d="M99.9,315V85H0v342h512.5H99.9V315z"/>
	<path class="st2" d="M27.5,244.6L8.1,213.2l19.4-30.8l19.3,30.8L27.5,244.6z M72.1,244.6l-19.3-31.4l19.3-30.8l19.4,30.8
		L72.1,244.6z M27.5,326.2L8.1,294.8L27.5,264l19.3,30.8L27.5,326.2z M72.1,326.2l-19.3-31.4L72.1,264l19.4,30.8L72.1,326.2z"/>
	<path class="st4" d="M27.5,158.8l-16.1-26l16.1-25.6l16,25.6L27.5,158.8z M72.1,158.8l-16-26l16-25.6l16.1,25.6L72.1,158.8z
		 M27.5,403l-16.1-26.1l16.1-25.6l16,25.6L27.5,403z M72.1,403l-16-26.1l16-25.6l16.1,25.6L72.1,403z"/>
</g>
</svg>
