<?xml version="1.0" encoding="utf-8"?>
<!-- Generator: Adobe Illustrator 27.0.0, SVG Export Plug-In . SVG Version: 6.00 Build 0)  -->
<svg version="1.1" id="Layer_1" xmlns="http://www.w3.org/2000/svg" xmlns:xlink="http://www.w3.org/1999/xlink" x="0px" y="0px"
	 viewBox="0 0 512 512" style="enable-background:new 0 0 512 512;" xml:space="preserve">
<style type="text/css">
	.st0{fill:#FE0000;}
	.st1{fill:none;stroke:#FCFD07;stroke-width:5.1293;stroke-linejoin:round;stroke-miterlimit:10;}
	.st2{fill:#FCFD07;}
</style>
<g>
	<g>
		<g id="Layer-1">
			<path class="st0" d="M0,85.3h512v341.3H0V85.3z"/>
			<g>
				<g>
					<path class="st1" d="M415.4,166.8H441v26.3h-25.6V166.8z"/>
					<g>
						<path class="st2" d="M415.5,164.1c-0.7,0-1.4,0.2-1.9,0.7c-1.1,1-1.1,2.8-0.1,3.8c6.5,6.3,12.4,13.1,18.8,19.5
							c5.3,5.3,11,10.2,15.6,16.1c1.7,2.2,3.4,4.5,3.5,7.3c0.2,3.7-2,7.1-4.4,9.8c-1.4,1.6-3,3.2-4.8,4.4c-0.6,0.4-0.8,1.2-0.4,1.8
							s1.2,0.8,1.8,0.4c2.3-1.5,4.4-3.4,6.3-5.5c3.2-3.6,5.6-8.3,4.7-13.2c-0.6-3.4-2.8-6.3-4.8-9c-2.3-3.1-5.2-6.1-7.6-8.8
							c-3-3.3-6-6.7-9.1-10c-2.5-2.6-4.9-5.1-7.4-7.7c-2.8-2.9-5.7-5.8-8.4-8.8C416.8,164.4,416.2,164.1,415.5,164.1z"/>
					</g>
					<g>
						<path class="st2" d="M441,164.1c-0.7,0-1.4,0.3-1.9,0.8c-3,3.3-6.2,6.5-9.3,9.8c-2.5,2.6-5,5.2-7.5,7.8
							c-2.8,2.9-5.4,5.9-8.1,8.9c-2.9,3.2-6.2,6.7-8.8,10.5c-1.7,2.5-3.4,5-3.8,8.1c-0.6,5.1,2.3,9.8,5.6,13.3
							c1.6,1.7,3.5,3.3,5.5,4.6c0.6,0.4,1.4,0.2,1.8-0.4c0.4-0.6,0.2-1.4-0.4-1.8c-2-1.5-3.9-3.3-5.5-5.3c-2.1-2.6-4-6-3.6-9.5
							c0.4-3.2,2.7-5.9,4.7-8.3c4.3-5.3,9.6-9.8,14.4-14.6c6.4-6.4,12.3-13.2,18.8-19.5c1-1.1,1-2.8-0.1-3.8
							C442.3,164.3,441.6,164.1,441,164.1z"/>
					</g>
					<g>
						<g>
							<path class="st2" d="M456.8,153.9c-1.9,0-3.8,0.6-5.5,1.5c-3.4,1.7-5.8,4.2-8.6,6.8c-5.6,5.1-10.7,10.8-16.3,15.9
								c-1.1,1.1-1.1,2.8,0,3.8c1.1,1.1,2.7,1.1,3.8,0c4.1-4.5,8.7-8.5,12.9-12.9c1.8-1.8,3.4-3.8,5.2-5.6c0.7-0.7,1.3-1.4,2-2.2
								c0,0,0.2-0.2,0.1-0.1c0.1-0.1,0.1-0.1,0.1-0.1c0.1-0.1,0.2-0.2,0.4-0.3c0.4-0.3,0.9-0.7,1.4-1c1.2-0.8,2.5-1.6,4-1.9
								c1.8-0.4,3.9,0,5.7,0.4c1.6,0.4,3.2,1.1,4.7,2c1.6,0.9,3.1,2.1,4.3,3.6c0.4,0.6,1.2,0.7,1.8,0.2c0.6-0.4,0.7-1.2,0.3-1.8
								c-1.4-2-3.4-3.7-5.5-5c-1.8-1.1-3.7-2-5.7-2.5C460.1,154.2,458.4,153.9,456.8,153.9z"/>
						</g>
						<g>
							<path class="st2" d="M445.1,135.1c-0.3,0-0.7,0.2-0.9,0.5c-0.4,0.6-0.3,1.4,0.3,1.8c1.6,1.3,2.9,3.1,3.9,4.9
								c0.8,1.5,1.5,3.2,1.8,4.9c0.3,1.5,0.5,3.2,0.2,4.8s-1.2,3.1-2.1,4.4c-0.3,0.4-0.6,0.8-0.9,1.2c-0.1,0.1-0.2,0.2-0.2,0.3
								c-1.2,1-2.3,2.1-3.4,3.2c-2,1.8-3.9,3.6-5.8,5.4c-3.9,3.8-7.6,7.8-11.6,11.5c-1.1,1.1-1.1,2.8,0,3.8c1.1,1.1,2.7,1.1,3.8,0
								c5.1-5.6,10.8-10.7,16-16.3c4.1-4.5,8.7-8.7,8.2-15.5c-0.1-1.6-0.5-3.2-1-4.7c-0.5-1.6-1.3-3.1-2.2-4.6c-1.3-2.1-3-4.1-5-5.5
								C445.8,135.1,445.4,135.1,445.1,135.1z"/>
						</g>
					</g>
					<g>
						<g>
							<path class="st2" d="M398.4,154c-1.6,0.1-3.2,0.5-4.7,1c-1.6,0.5-3.2,1.3-4.6,2.2c-2.1,1.3-4.1,3-5.5,5
								c-0.4,0.6-0.3,1.4,0.3,1.8c0.6,0.4,1.4,0.3,1.8-0.2c1.3-1.6,3.1-3,5-4c1.5-0.8,3.2-1.5,4.9-1.8c1.5-0.3,3.2-0.5,4.8-0.2
								c1.6,0.3,3,1.2,4.3,2.1c0.4,0.3,0.8,0.6,1.2,0.9c0.1,0.1,0.2,0.2,0.3,0.2c0,0,0.2,0.2,0.1,0.1c1,1.1,2,2.2,3,3.3
								c1.8,2,3.6,3.9,5.4,5.8c3.8,3.9,7.9,7.6,11.6,11.6c1.1,1.1,2.7,1.1,3.8,0c1.1-1.1,1.1-2.8,0-3.8
								c-5.6-5.1-10.6-10.8-16.2-15.9C409.4,158,405.1,153.4,398.4,154z"/>
						</g>
						<g>
							<path class="st2" d="M411.4,135.1c-0.3,0-0.7,0-1,0.2c-2,1.4-3.7,3.4-5,5.5c-1.1,1.8-2,3.6-2.5,5.6c-0.4,1.6-0.7,3.3-0.7,5
								c0,1.9,0.6,3.8,1.4,5.5c1.7,3.4,4.2,5.8,6.8,8.6c5.1,5.6,10.8,10.7,15.9,16.3c1.1,1.1,2.7,1.1,3.8,0c1.1-1.1,1.1-2.8,0-3.8
								c-4.5-4.1-8.5-8.6-12.9-12.8c-1.8-1.8-3.7-3.5-5.6-5.2c-0.7-0.7-1.4-1.3-2.2-2v-0.1c0,0-0.1,0-0.1-0.1s-0.1-0.1-0.1-0.1
								c-0.1-0.1-0.2-0.2-0.3-0.3c-0.4-0.4-0.7-0.9-1-1.4c-0.8-1.2-1.6-2.6-1.9-4c-0.4-1.8,0-3.9,0.4-5.7c0.4-1.6,1.1-3.2,2-4.6
								c0.9-1.6,2.1-3.1,3.6-4.3c0.6-0.4,0.7-1.2,0.3-1.8C412,135.4,411.7,135.2,411.4,135.1z"/>
						</g>
					</g>
					<path class="st2" d="M425,160.7h6.5v4.8H425V160.7z"/>
					<path class="st2" d="M423.7,156.6c0-3.5,2-6.3,4.6-6.3c2.5,0,4.6,2.8,4.6,6.3s-2,6.3-4.6,6.3
						C425.7,162.9,423.7,160.1,423.7,156.6z"/>
					<path class="st2" d="M421.9,152.7h12.7v2.3h-12.7V152.7z"/>
					<path class="st2" d="M423.9,151.2h8.6v2.4h-8.6V151.2z"/>
					<path class="st2" d="M425.5,149.4h5.5v2.1h-5.5V149.4z"/>
					<path class="st2" d="M428.2,134.4l1.6,16h-3.1L428.2,134.4z"/>
				</g>
				<g>
					<path class="st1" d="M415.4,317.5H441v26.3h-25.6V317.5z"/>
					<g>
						<path class="st2" d="M415.5,314.8c-0.7,0-1.4,0.2-1.9,0.7c-1.1,1-1.1,2.8-0.1,3.8c6.5,6.3,12.4,13.1,18.8,19.5
							c5.3,5.3,11,10.2,15.6,16.1c1.7,2.2,3.4,4.5,3.5,7.3c0.2,3.7-2,7.1-4.4,9.8c-1.4,1.6-3,3.2-4.8,4.4c-0.6,0.4-0.8,1.2-0.4,1.8
							c0.4,0.6,1.2,0.8,1.8,0.4c2.3-1.5,4.4-3.4,6.3-5.5c3.2-3.6,5.6-8.3,4.7-13.2c-0.6-3.4-2.8-6.3-4.8-9c-2.3-3.1-5.2-6.1-7.6-8.8
							c-3-3.3-6-6.7-9.1-10c-2.5-2.6-4.9-5.1-7.4-7.7c-2.8-2.9-5.7-5.8-8.4-8.8C416.8,315.1,416.2,314.9,415.5,314.8z"/>
					</g>
					<g>
						<path class="st2" d="M441,314.8c-0.7,0-1.4,0.3-1.9,0.8c-3,3.3-6.2,6.5-9.3,9.8c-2.5,2.6-5,5.2-7.5,7.8
							c-2.8,2.9-5.4,5.9-8.1,8.9c-2.9,3.2-6.2,6.7-8.8,10.5c-1.7,2.5-3.4,5-3.8,8.1c-0.6,5.1,2.3,9.8,5.6,13.3
							c1.6,1.7,3.5,3.3,5.5,4.6c0.6,0.4,1.4,0.2,1.8-0.4s0.2-1.4-0.4-1.8c-2-1.5-3.9-3.3-5.5-5.3c-2.1-2.6-4-6-3.6-9.5
							c0.4-3.2,2.7-5.9,4.7-8.3c4.3-5.3,9.6-9.8,14.4-14.6c6.4-6.4,12.3-13.2,18.8-19.5c1-1.1,1-2.8-0.1-3.8
							C442.3,315,441.6,314.8,441,314.8z"/>
					</g>
					<g>
						<g>
							<path class="st2" d="M445.1,285.8c-0.3,0-0.7,0.2-0.9,0.5c-0.4,0.6-0.3,1.4,0.3,1.8c1.6,1.3,2.9,3.1,3.9,4.9
								c0.8,1.5,1.5,3.2,1.8,4.9c0.3,1.5,0.5,3.2,0.2,4.8c-0.3,1.6-1.2,3.1-2.1,4.4c-0.3,0.4-0.6,0.8-0.9,1.2
								c-0.1,0.1-0.2,0.2-0.2,0.3c-1.2,1-2.3,2.1-3.4,3.2c-2,1.8-3.9,3.6-5.8,5.4c-3.9,3.8-7.6,7.8-11.6,11.5
								c-1.1,1.1-1.1,2.8,0,3.8c1.1,1.1,2.7,1.1,3.8,0c5.1-5.6,10.8-10.7,16-16.3c4.1-4.5,8.7-8.7,8.2-15.5c-0.1-1.6-0.5-3.2-1-4.7
								c-0.5-1.6-1.3-3.1-2.2-4.6c-1.3-2.1-3-4-5-5.5C445.8,285.9,445.4,285.8,445.1,285.8z"/>
						</g>
					</g>
					<g>
						<g>
							<path class="st2" d="M411.4,285.8c-0.3,0-0.7,0-1,0.2c-2,1.4-3.7,3.4-5,5.5c-1.1,1.8-2,3.6-2.5,5.6c-0.4,1.6-0.7,3.3-0.7,5
								c0,1.9,0.6,3.8,1.4,5.5c1.7,3.4,4.2,5.8,6.8,8.6c5.1,5.6,10.8,10.7,15.9,16.3c1.1,1.1,2.7,1.1,3.8,0c1.1-1.1,1.1-2.8,0-3.8
								c-4.5-4.1-8.5-8.6-12.9-12.8c-1.8-1.8-3.7-3.5-5.6-5.2c-0.7-0.7-1.4-1.3-2.2-2v-0.1c0,0-0.1,0-0.1-0.1s-0.1-0.1-0.1-0.1
								c-0.1-0.1-0.2-0.2-0.3-0.3c-0.4-0.4-0.7-0.9-1-1.4c-0.8-1.2-1.6-2.6-1.9-4c-0.4-1.8,0-3.9,0.4-5.7c0.4-1.6,1.1-3.2,2-4.6
								c0.9-1.6,2.1-3.1,3.6-4.3c0.6-0.4,0.7-1.2,0.3-1.8C412,286.1,411.7,285.9,411.4,285.8z"/>
						</g>
					</g>
					<path class="st2" d="M425,311.4h6.5v4.8H425V311.4z"/>
					<path class="st2" d="M423.7,307.3c0-3.5,2-6.3,4.6-6.3c2.5,0,4.6,2.8,4.6,6.3s-2,6.3-4.6,6.3
						C425.7,313.6,423.7,310.8,423.7,307.3z"/>
					<path class="st2" d="M421.9,303.5h12.7v2.3h-12.7V303.5z"/>
					<path class="st2" d="M428.1,284.3l6.5,19.1h-12.7L428.1,284.3z"/>
				</g>
			</g>
			<g>
				<g>
					<path class="st1" d="M71,166.8h25.6v26.3H71V166.8z"/>
					<g>
						<path class="st2" d="M71,164.1c-0.7,0-1.4,0.2-1.9,0.7c-1.1,1-1.1,2.8-0.1,3.8c6.5,6.3,12.4,13.1,18.8,19.5
							c5.3,5.3,11,10.2,15.6,16.1c1.7,2.2,3.4,4.5,3.5,7.3c0.2,3.7-2,7.1-4.4,9.8c-1.4,1.6-3,3.2-4.8,4.4c-0.6,0.4-0.8,1.2-0.4,1.8
							s1.2,0.8,1.8,0.4c2.3-1.5,4.5-3.4,6.3-5.5c3.2-3.6,5.6-8.3,4.7-13.2c-0.6-3.4-2.8-6.3-4.8-9c-2.3-3.1-5.2-6.1-7.6-8.8
							c-3-3.3-6-6.7-9.1-10c-2.5-2.6-4.9-5.1-7.4-7.7c-2.8-2.9-5.6-5.8-8.4-8.8C72.4,164.4,71.7,164.1,71,164.1z"/>
					</g>
					<g>
						<path class="st2" d="M96.5,164.1c-0.7,0-1.4,0.3-1.9,0.8c-3,3.3-6.2,6.5-9.3,9.8c-2.5,2.6-5,5.2-7.5,7.8
							c-2.8,2.9-5.4,5.9-8.1,8.9c-2.9,3.2-6.2,6.7-8.8,10.5c-1.7,2.5-3.3,5-3.7,8.1c-0.6,5.1,2.3,9.8,5.6,13.3
							c1.6,1.7,3.5,3.3,5.4,4.6c0.6,0.4,1.4,0.2,1.8-0.4c0.4-0.6,0.2-1.4-0.4-1.8c-2-1.5-3.9-3.3-5.5-5.3c-2.1-2.6-4-6-3.6-9.5
							c0.4-3.2,2.7-5.9,4.7-8.3c4.3-5.3,9.6-9.8,14.4-14.6c6.4-6.4,12.3-13.2,18.8-19.5c1-1.1,1-2.8-0.1-3.8
							C97.9,164.3,97.2,164.1,96.5,164.1z"/>
					</g>
					<g>
						<g>
							<path class="st2" d="M112.3,153.9c-1.9,0-3.8,0.6-5.5,1.5c-3.4,1.7-5.9,4.2-8.7,6.8c-5.6,5.1-10.6,10.8-16.2,15.9
								c-1.1,1.1-1.1,2.8,0,3.8c1.1,1.1,2.7,1.1,3.8,0c4.1-4.5,8.7-8.5,12.9-12.9c1.8-1.8,3.4-3.8,5.2-5.6c0.7-0.7,1.3-1.4,2-2.2
								c0,0,0.2-0.2,0.1-0.1c0.1-0.1,0.1-0.1,0.1-0.1c0.1-0.1,0.2-0.2,0.4-0.3c0.4-0.3,0.9-0.7,1.4-1c1.2-0.8,2.5-1.6,4-1.9
								c1.8-0.4,3.9,0,5.7,0.4c1.6,0.4,3.2,1.1,4.7,2c1.6,0.9,3.1,2.1,4.3,3.6c0.4,0.6,1.2,0.7,1.8,0.2c0.6-0.4,0.7-1.2,0.3-1.8
								c-1.4-2-3.4-3.7-5.5-5c-1.8-1.1-3.7-2-5.7-2.5C115.6,154.2,114,153.9,112.3,153.9z"/>
						</g>
						<g>
							<path class="st2" d="M100.6,135.1c-0.3,0-0.6,0.2-0.8,0.5c-0.4,0.6-0.3,1.4,0.3,1.8c1.6,1.3,2.9,3.1,3.9,4.9
								c0.8,1.5,1.5,3.2,1.8,4.9c0.3,1.5,0.5,3.2,0.2,4.8s-1.2,3.1-2.1,4.4c-0.3,0.4-0.6,0.8-1,1.2c-0.1,0.1-0.1,0.2-0.2,0.3
								l-0.2,0.2c-1.1,1-2.2,2-3.3,3c-2,1.8-3.9,3.6-5.8,5.4c-3.9,3.8-7.6,7.8-11.6,11.5c-1.1,1.1-1.1,2.8,0,3.8
								c1.1,1.1,2.7,1.1,3.8,0c5.1-5.6,10.8-10.7,15.9-16.3c4.1-4.5,8.7-8.7,8.2-15.5c-0.1-1.6-0.5-3.2-1-4.7
								c-0.5-1.6-1.3-3.1-2.2-4.6c-1.3-2.1-3-4.1-5-5.5C101.3,135.1,100.9,135.1,100.6,135.1z"/>
						</g>
					</g>
					<g>
						<g>
							<path class="st2" d="M53.9,154c-1.6,0.1-3.2,0.5-4.7,1c-1.6,0.5-3.1,1.3-4.6,2.2c-2.1,1.3-4.1,3-5.5,5
								c-0.4,0.6-0.3,1.4,0.3,1.8c0.6,0.4,1.4,0.3,1.8-0.2c1.3-1.6,3.1-3,5-4c1.5-0.8,3.2-1.5,4.9-1.8c1.5-0.3,3.2-0.5,4.8-0.2
								s3,1.2,4.3,2.1c0.4,0.3,0.8,0.6,1.2,0.9c0.1,0.1,0.2,0.2,0.3,0.2c0,0,0.2,0.2,0.1,0.1c1,1.1,2,2.2,3,3.3
								c1.8,2,3.6,3.9,5.4,5.8c3.8,3.9,7.9,7.6,11.6,11.6c1.1,1.1,2.7,1.1,3.8,0c1.1-1.1,1.1-2.8,0-3.8
								c-5.6-5.1-10.7-10.8-16.3-15.9C64.9,158,60.7,153.4,53.9,154z"/>
						</g>
						<g>
							<path class="st2" d="M66.9,135.1c-0.3,0-0.7,0-1,0.2c-2,1.4-3.7,3.4-5,5.5c-1.1,1.8-2,3.6-2.5,5.6c-0.4,1.6-0.7,3.3-0.7,5
								c0,1.9,0.6,3.8,1.4,5.5c1.7,3.4,4.2,5.8,6.8,8.6c5.1,5.6,10.8,10.7,16,16.3c1.1,1.1,2.7,1.1,3.8,0c1.1-1.1,1.1-2.8,0-3.8
								c-4.5-4.1-8.5-8.6-12.9-12.8c-1.8-1.8-3.8-3.5-5.6-5.2c-0.8-0.7-1.5-1.4-2.3-2.1c-0.1-0.1,0-0.1-0.1-0.1
								c-0.1-0.1-0.2-0.2-0.3-0.3c-0.3-0.4-0.7-0.9-1-1.4c-0.8-1.2-1.6-2.6-1.9-4c-0.4-1.8,0-3.9,0.4-5.7c0.4-1.6,1.1-3.2,2-4.6
								c0.9-1.6,2.1-3.1,3.6-4.3c0.6-0.4,0.7-1.2,0.3-1.8C67.6,135.4,67.2,135.2,66.9,135.1z"/>
						</g>
					</g>
					<path class="st2" d="M80.5,160.7H87v4.8h-6.5V160.7z"/>
					<path class="st2" d="M79.2,156.6c0-3.5,2-6.3,4.6-6.3c2.5,0,4.6,2.8,4.6,6.3s-2,6.3-4.6,6.3C81.3,162.9,79.2,160.1,79.2,156.6z
						"/>
					<path class="st2" d="M77.4,152.7h12.7v2.3H77.4V152.7z"/>
					<path class="st2" d="M79.5,151.2h8.6v2.4h-8.6V151.2z"/>
					<path class="st2" d="M81,149.4h5.5v2.1H81V149.4z"/>
					<path class="st2" d="M83.7,134.4l1.6,16h-3.1L83.7,134.4z"/>
				</g>
				<g>
					<path class="st1" d="M71,317.5h25.6v26.3H71V317.5z"/>
					<g>
						<path class="st2" d="M71,314.8c-0.7,0-1.4,0.2-1.9,0.7c-1.1,1-1.1,2.8-0.1,3.8c6.5,6.3,12.4,13.1,18.8,19.5
							c5.3,5.3,11,10.2,15.6,16.1c1.7,2.2,3.4,4.5,3.5,7.3c0.2,3.7-2,7.1-4.4,9.8c-1.4,1.6-3,3.2-4.8,4.4c-0.6,0.4-0.8,1.2-0.4,1.8
							c0.4,0.6,1.2,0.8,1.8,0.4c2.3-1.5,4.5-3.4,6.3-5.5c3.2-3.6,5.6-8.3,4.7-13.2c-0.6-3.4-2.8-6.3-4.8-9c-2.3-3.1-5.2-6.1-7.6-8.8
							c-3-3.3-6-6.7-9.1-10c-2.5-2.6-4.9-5.1-7.4-7.7c-2.8-2.9-5.6-5.8-8.4-8.8C72.4,315.1,71.7,314.9,71,314.8z"/>
					</g>
					<g>
						<path class="st2" d="M96.5,314.8c-0.7,0-1.4,0.3-1.9,0.8c-3,3.3-6.2,6.5-9.3,9.8c-2.5,2.6-5,5.2-7.5,7.8
							c-2.8,2.9-5.4,5.9-8.1,8.9c-2.9,3.2-6.2,6.7-8.8,10.5c-1.7,2.5-3.3,5-3.7,8.1c-0.6,5.1,2.3,9.8,5.6,13.3
							c1.6,1.7,3.5,3.3,5.4,4.6c0.6,0.4,1.4,0.2,1.8-0.4s0.2-1.4-0.4-1.8c-2-1.5-3.9-3.3-5.5-5.3c-2.1-2.6-4-6-3.6-9.5
							c0.4-3.2,2.7-5.9,4.7-8.3c4.3-5.3,9.6-9.8,14.4-14.6c6.4-6.4,12.3-13.2,18.8-19.5c1-1.1,1-2.8-0.1-3.8
							C97.9,315,97.2,314.8,96.5,314.8z"/>
					</g>
					<g>
						<g>
							<path class="st2" d="M100.6,285.8c-0.3,0-0.6,0.2-0.8,0.5c-0.4,0.6-0.3,1.4,0.3,1.8c1.6,1.3,2.9,3.1,3.9,4.9
								c0.8,1.5,1.5,3.2,1.8,4.9c0.3,1.5,0.5,3.2,0.2,4.8c-0.3,1.6-1.2,3.1-2.1,4.4c-0.3,0.4-0.6,0.8-1,1.2
								c-0.1,0.1-0.1,0.2-0.2,0.3l-0.2,0.2c-1.1,1-2.2,2-3.3,3c-2,1.8-3.9,3.6-5.8,5.4c-3.9,3.8-7.6,7.8-11.6,11.5
								c-1.1,1.1-1.1,2.8,0,3.8c1.1,1.1,2.7,1.1,3.8,0c5.1-5.6,10.8-10.7,15.9-16.3c4.1-4.5,8.7-8.7,8.2-15.5
								c-0.1-1.6-0.5-3.2-1-4.7c-0.5-1.6-1.3-3.1-2.2-4.6c-1.3-2.1-3-4-5-5.5C101.3,285.9,100.9,285.8,100.6,285.8z"/>
						</g>
					</g>
					<g>
						<g>
							<path class="st2" d="M66.9,285.8c-0.3,0-0.7,0-1,0.2c-2,1.4-3.7,3.4-5,5.5c-1.1,1.8-2,3.6-2.5,5.6c-0.4,1.6-0.7,3.3-0.7,5
								c0,1.9,0.6,3.8,1.4,5.5c1.7,3.4,4.2,5.8,6.8,8.6c5.1,5.6,10.8,10.7,16,16.3c1.1,1.1,2.7,1.1,3.8,0s1.1-2.8,0-3.8
								c-4.5-4.1-8.5-8.6-12.9-12.8c-1.8-1.8-3.8-3.5-5.6-5.2c-0.8-0.7-1.5-1.4-2.3-2.1c-0.1-0.1,0-0.1-0.1-0.1
								c-0.1-0.1-0.2-0.2-0.3-0.3c-0.3-0.4-0.7-0.9-1-1.4c-0.8-1.2-1.6-2.6-1.9-4c-0.4-1.8,0-3.9,0.4-5.7c0.4-1.6,1.1-3.2,2-4.6
								c0.9-1.6,2.1-3.1,3.6-4.3c0.6-0.4,0.7-1.2,0.3-1.8C67.6,286.1,67.2,285.9,66.9,285.8z"/>
						</g>
					</g>
					<path class="st2" d="M80.5,311.4H87v4.8h-6.5V311.4z"/>
					<path class="st2" d="M79.2,307.3c0-3.5,2-6.3,4.6-6.3c2.5,0,4.6,2.8,4.6,6.3s-2,6.3-4.6,6.3C81.3,313.6,79.2,310.8,79.2,307.3z
						"/>
					<path class="st2" d="M77.4,303.5h12.7v2.3H77.4V303.5z"/>
					<path class="st2" d="M83.6,284.3l6.5,19.1H77.4L83.6,284.3z"/>
				</g>
			</g>
			<g>
				<path class="st2" d="M256,204.9l-8.8-20l-21.7,2.4l12.9-17.6L225.5,152l21.7,2.4l8.8-20l8.8,20l21.7-2.4l-12.9,17.6l12.9,17.6
					l-21.7-2.4L256,204.9z"/>
				<path class="st2" d="M186.3,304.5c0-38.5,31.2-69.7,69.7-69.7s69.7,31.2,69.7,69.7s-31.2,69.7-69.7,69.7S186.3,343,186.3,304.5z
					"/>
			</g>
		</g>
	</g>
</g>
</svg>
