<?xml version="1.0" encoding="utf-8"?>
<!-- Generator: Adobe Illustrator 27.0.0, SVG Export Plug-In . SVG Version: 6.00 Build 0)  -->
<svg version="1.1" id="Capa_1" xmlns="http://www.w3.org/2000/svg" xmlns:xlink="http://www.w3.org/1999/xlink" x="0px" y="0px"
	 viewBox="0 0 512 512" style="enable-background:new 0 0 512 512;" xml:space="preserve">
<style type="text/css">
	.st0{fill:#FFFFFF;}
	.st1{fill:#FF0000;}
</style>
<path class="st0" d="M0,85.3h512v341.3H0V85.3z"/>
<path class="st1" d="M221.9,85.3h68.3v341.3h-68.3V85.3z M0,221.9h512v68.3H0V221.9z"/>
<g id="b">
	<g id="c">
		<path id="d" class="st1" d="M98.9,118.7c8,1,16,1,24,0c-4.6,23-4.6,46.8,0,69.8c-8-1-16-1-24,0
			C103.6,165.5,103.6,141.7,98.9,118.7C98.9,118.7,98.9,118.7,98.9,118.7z"/>
		<path id="e" class="st1" d="M145.9,141.6c-1,8-1,16,0,24c-23-4.6-46.8-4.6-69.8,0c1-8,1-16,0-24
			C99.1,146.2,122.8,146.2,145.9,141.6C145.9,141.6,145.9,141.6,145.9,141.6z"/>
	</g>
	<g id="f">
		<path id="g" class="st1" d="M389.1,118.7c8,1,16,1,24,0c-4.6,23-4.6,46.8,0,69.8c-8-1-16-1-24,0
			C393.7,165.5,393.7,141.7,389.1,118.7C389.1,118.7,389.1,118.7,389.1,118.7z"/>
		<path id="h" class="st1" d="M436,141.6c-1,8-1,16,0,24c-23-4.6-46.8-4.6-69.8,0c1-8,1-16,0-24C389.2,146.2,412.9,146.2,436,141.6
			C436,141.6,436,141.6,436,141.6z"/>
	</g>
</g>
<g id="i">
	<g id="j">
		<path id="k" class="st1" d="M98.9,323.5c8,1,16,1,24,0c-4.6,23-4.6,46.8,0,69.8c-8-1-16-1-24,0
			C103.6,370.3,103.6,346.5,98.9,323.5L98.9,323.5L98.9,323.5z"/>
		<path id="l" class="st1" d="M145.9,346.4c-1,8-1,16,0,24c-23-4.6-46.8-4.6-69.8,0c1-8,1-16,0-24C99.1,351,122.8,351,145.9,346.4
			L145.9,346.4z"/>
	</g>
	<g id="m">
		<path id="n" class="st1" d="M389.1,323.5c8,1,16,1,24,0c-4.6,23-4.6,46.8,0,69.8c-8-1-16-1-24,0
			C393.7,370.3,393.7,346.5,389.1,323.5L389.1,323.5L389.1,323.5z"/>
		<path id="o" class="st1" d="M436,346.4c-1,8-1,16,0,24c-23-4.6-46.8-4.6-69.8,0c1-8,1-16,0-24C389.2,351,412.9,351,436,346.4
			L436,346.4z"/>
	</g>
</g>
</svg>
