<?xml version="1.0" encoding="utf-8"?>
<!-- Generator: Adobe Illustrator 27.0.0, SVG Export Plug-In . SVG Version: 6.00 Build 0)  -->
<svg version="1.1" id="Layer_1" xmlns="http://www.w3.org/2000/svg" xmlns:xlink="http://www.w3.org/1999/xlink" x="0px" y="0px"
	 viewBox="0 0 512 512" style="enable-background:new 0 0 512 512;" xml:space="preserve">
<style type="text/css">
	.st0{fill-rule:evenodd;clip-rule:evenodd;fill:#FFFFFF;}
	.st1{fill-rule:evenodd;clip-rule:evenodd;fill:#ED2024;}
	.st2{fill-rule:evenodd;clip-rule:evenodd;fill:#278E43;}
	.st3{fill-rule:evenodd;clip-rule:evenodd;fill:#FEBD11;}
</style>
<g>
	<path class="st0" d="M0,85.3h512v341.3H0V85.3z"/>
	<path class="st1" d="M0,85.3h512v113.8H0V85.3z"/>
	<path class="st2" d="M0,312.9h512v113.8H0V312.9z"/>
</g>
<path class="st3" d="M256,170.7l6.4,43.4l18.9-39.6l-6.7,43.3l29.7-32.2L285.2,225l37.9-22.1L293.2,235l42.7-9.9l-38.1,21.8
	l43.7,3.1l-42.8,9.6l40.9,15.9l-43.7-3.4l34.4,27.2l-40.8-16.2l24.8,36.2l-34.2-27.5l13.1,41.9l-24.6-36.3l0.1,43.9L256,299.4
	l-12.8,41.9l0.1-43.9l-24.6,36.3l13.1-41.9l-34.2,27.5l24.8-36.2l-40.8,16.2l34.4-27.2l-43.7,3.4l40.9-15.9l-42.8-9.6l43.7-3.1
	l-38.1-21.8l42.7,9.9L188.9,203l37.9,22.1l-19.2-39.4l29.7,32.2l-6.7-43.3l18.9,39.6L256,170.7z"/>
</svg>
