<?xml version="1.0" encoding="utf-8"?>
<!-- Generator: Adobe Illustrator 27.0.0, SVG Export Plug-In . SVG Version: 6.00 Build 0)  -->
<svg version="1.1" id="Layer_1" xmlns="http://www.w3.org/2000/svg" xmlns:xlink="http://www.w3.org/1999/xlink" x="0px" y="0px"
	 viewBox="0 0 512 512" style="enable-background:new 0 0 512 512;" xml:space="preserve">
<style type="text/css">
	.st0{fill:#004614;}
	.st1{fill:#FFFFFF;stroke:#FFFFFF;stroke-width:3.3179;stroke-linecap:round;}
	.st2{fill:none;stroke:#FFFFFF;stroke-width:7.2562;stroke-linejoin:round;}
	.st3{fill:#FFFFFF;}
	.st4{fill:#004614;stroke:#FFFFFF;stroke-width:1.1163;}
	.st5{fill:#004614;stroke:#FFFFFF;stroke-width:1.1163;stroke-linecap:round;}
	.st6{fill:#004614;stroke:#FFFFFF;stroke-width:1.1163;stroke-linejoin:round;}
</style>
<g transform="matrix(1 0 0 1 396.52 264.02)">
	<g>
		<g id="rect7253" transform="matrix(1 0 0 1 0 0)">
			<rect x="-395.9" y="-178.5" class="st0" width="512" height="340.9"/>
		</g>
		<g id="path3978" transform="matrix(1 0 0 1 -0.88 -27.37)">
			<path class="st1" d="M-139.6-101.3c-56.9,0-103,46.1-103,103s46.1,103,103,103s103-46.1,103-103S-82.7-101.3-139.6-101.3z
				 M-139.6-93.1c52.4,0,94.8,42.5,94.8,94.8s-42.5,94.8-94.8,94.8S-234.4,54-234.4,1.7S-192-93.1-139.6-93.1z"/>
		</g>
		<g id="path3948" transform="matrix(1 0 0 1 -2.78 -39.48)">
			<path class="st2" d="M-242.2,10.5c27.6,0,39.8-9.5,58.8-9.5c20.9,0,28.2,8.3,44.2,8.3c19.5,0,20.1-8.1,41-8.1
				c19.1,0,34.1,10.4,62.3,9.7"/>
		</g>
		<g id="path3950" transform="matrix(1 0 0 1 -1.91 -16.89)">
			<path class="st2" d="M-242.5,2.5c27.6,0,39.8-9.5,58.8-9.5c20.9,0,28.2,8.3,44.2,8.3c19.5,0,20.1-8.1,41-8.1
				c19.1,0,34.1,10.4,62.3,9.7"/>
		</g>
		<g id="path3952" transform="matrix(1 0 0 1 -1.11 5.69)">
			<path class="st2" d="M-238.4-5.7c23.5-1.2,35.2-9.3,52.9-9.3c20.9,0,28.2,8.3,44.2,8.3c19.5,0,20.1-8.1,41-8.1
				c18.5,0,33.1,9.7,59.6,9.8"/>
		</g>
		<g id="path3954" transform="matrix(1 0 0 1 -1.97 28.15)">
			<path class="st2" d="M-233.6-13.8c21.5-1.7,32.9-9.1,49.8-9.1c20.9,0,28.2,8.3,44.2,8.3c19.5,0,20.1-8.1,41-8.1
				c17.1,0,30.9,8.3,53.7,9.6"/>
		</g>
		<g id="path3956" transform="matrix(1 0 0 1 -1.64 50.16)">
			<path class="st2" d="M-226.3-22c17.1-2.5,27.8-8.3,42.7-8.3c20.9,0,28.2,8.3,44.2,8.3c19.5,0,20.1-8.1,41-8.1
				c15,0,27.5,6.4,46,8.9"/>
		</g>
		<g id="path3958" transform="matrix(1 0 0 1 -6.69 -113.79)">
			<path class="st3" d="M-136.4,8.1c7.7,3.4,13.1,11,13.1,20c0,12.1-9.8,21.8-21.8,21.8c-6,0-11.5-2.5-15.4-6.4
				c4.1,7.8,12.2,13.1,21.6,13.1c13.4,0,24.3-10.9,24.3-24.3C-114.6,19.7-124.2,9.4-136.4,8.1L-136.4,8.1z"/>
		</g>
		<g id="path3960" transform="matrix(1 0 0 1 -25.62 -125.12)">
			<path class="st3" d="M-128.7,46.6l-4.6-5.9l-7.3,1.7l4.2-6.2l-3.9-6.4l7.2,2l4.9-5.7l0.3,7.5l6.9,2.9l-7,2.6L-128.7,46.6z"/>
		</g>
		<g id="path4219" transform="matrix(1 0 0 1 -177.42 69.82)">
			<path class="st4" d="M-77.1-32.8"/>
		</g>
		<g id="path4181" transform="matrix(1 0 0 1 -171.47 -15.11)">
			<path class="st5" d="M-78.3-10.4L-80.1,5"/>
		</g>
		<g id="path4183" transform="matrix(1 0 0 1 -166.18 6.65)">
			<path class="st5" d="M-79.9-17.5l-2.2,14.2"/>
		</g>
		<g id="path4191" transform="matrix(1 0 0 1 -195.36 -10.42)">
			<path class="st5" d="M-70.3-11.9l-0.8,15.1"/>
		</g>
		<g id="path4189" transform="matrix(1 0 0 1 -205.98 1.98)">
			<path class="st5" d="M-67.5-16.7l1.1,15.9"/>
		</g>
		<g id="path4179" transform="matrix(1 0 0 1 -181.51 -24.34)">
			<path class="st5" d="M-77.1,12.5l2.9-23.8"/>
		</g>
		<g id="path4185" transform="matrix(1 0 0 1 -164.15 21)">
			<path class="st5" d="M-80.3-23l-3,15.1"/>
		</g>
		<g id="path4187" transform="matrix(1 0 0 1 -209.19 27.44)">
			<path class="st5" d="M-64-13l-3.6-9.5"/>
		</g>
		<g id="path4177" transform="matrix(1 0 0 1 -176.92 12.27)">
			<path class="st4" d="M-74.4-23.8c2.9,9.3-3.1,19.8-6.6,22.9C-80.8-8-80.7-21.2-74.4-23.8z"/>
		</g>
		<g id="path4169" transform="matrix(1 0 0 1 -174.9 29.56)">
			<path class="st4" d="M-73.3-28c-9.6,2.5-7.7,10.2-9.5,19C-78.1-13.1-72-15.1-73.3-28z"/>
		</g>
		<g id="path4173" transform="matrix(1 0 0 1 -193.52 13.89)">
			<path class="st4" d="M-72.7-23.3c-5.7,6.4,0.1,15,2.8,20.8C-66.7-9.8-66.3-19.4-72.7-23.3z"/>
		</g>
		<g id="path4171" transform="matrix(1 0 0 1 -197.08 29.99)">
			<path class="st4" d="M-75.4-30.1c0.2,10.2,2.7,18.6,10.6,22.9C-65.5-19.1-68-28.2-75.4-30.1z"/>
		</g>
		<g id="path4175" transform="matrix(1 0 0 1 -184.43 8.81)">
			<path class="st4" d="M-74-22.7c-6.4,6.9-4,17.8-0.1,23.2C-72.2-5.1-68.9-16.9-74-22.7L-74-22.7z"/>
		</g>
		<g id="path4167" transform="matrix(1 0 0 1 -186.15 32.91)">
			<path class="st4" d="M-74.2-32.6c4.8,7.6,5.7,18.2,0.3,25.8C-79.7-13.7-78.1-25-74.2-32.6z"/>
		</g>
		<g id="path4165" transform="matrix(1 0 0 1 -176.58 45.44)">
			<path class="st4" d="M-83.9-14.8c-1.2-6.9,3.9-14.7,13.3-18.8C-70.5-19.8-76.6-13.1-83.9-14.8z"/>
		</g>
		<g id="path4163" transform="matrix(1 0 0 1 -194.86 46.74)">
			<path class="st6" d="M-63.1-15.9c-10.5-0.6-13.8-8-15.5-17.4C-71.1-31-66.2-25.2-63.1-15.9z"/>
		</g>
		<g id="path4199" transform="matrix(1 0 0 1 -230.71 72.64)">
			<path class="st5" d="M-63.6-41l10.9,14.5"/>
		</g>
		<g id="path4197" transform="matrix(1 0 0 1 -229.45 55.09)">
			<path class="st5" d="M-62.1-34.4l7,13.7"/>
		</g>
		<g id="path4195" transform="matrix(1 0 0 1 -226.44 35.73)">
			<path class="st5" d="M-53-10.1l-13.4-21.2"/>
		</g>
		<g id="path4201" transform="matrix(1 0 0 1 -212 98.57)">
			<path class="st5" d="M-70.4-45.3l11.2,4.7"/>
		</g>
		<g id="path4193" transform="matrix(1 0 0 1 -212.44 34.12)">
			<path class="st5" d="M-61.2-14.2l-7-11.7"/>
		</g>
		<g id="path4221" transform="matrix(1 0 0 1 -193.51 50.22)">
			<path class="st5" d="M-69.7-21.4l-3.3-8.9"/>
		</g>
		<g id="path4255" transform="matrix(1 0 0 1 -181.58 62.7)">
			<path class="st5" d="M-73-25.4l-5.2-9.7"/>
		</g>
		<g id="path4157-1" transform="matrix(1 0 0 1 -214.81 72.91)">
			<path class="st4" d="M-70.8-40.3c6.3-2.2,12.7-0.3,14,13.7C-65.3-28.7-70.9-33.4-70.8-40.3z"/>
		</g>
		<g id="path4161-0" transform="matrix(1 0 0 1 -199.96 60.28)">
			<path class="st4" d="M-73.9-40.9c9,4.6,11.9,15.8,9.9,23.1C-71.7-20.7-76.8-31.5-73.9-40.9z"/>
		</g>
		<g id="path4153-5" transform="matrix(1 0 0 1 -187.85 75.66)">
			<path class="st4" d="M-75.4-47.4c-5,9-1.2,17.2,5.3,25.1C-69-31.2-66.8-40.3-75.4-47.4z"/>
		</g>
		<g id="path4159-8" transform="matrix(1 0 0 1 -208.37 61.57)">
			<path class="st4" d="M-73.2-39c-1.9,6.1,4.6,19.6,14.5,18.3C-60.4-29.3-65.9-37.3-73.2-39z"/>
		</g>
		<g id="path4155-9" transform="matrix(1 0 0 1 -206.38 89.77)">
			<path class="st4" d="M-78.4-45.2c4.6,9.8,13.8,11,23.2,12C-62.4-40.4-69.1-50-78.4-45.2z"/>
		</g>
		<g id="path4151-7" transform="matrix(1 0 0 1 -193.95 85.6)">
			<path class="st4" d="M-79.6-48.7c9.2,2.7,15.9,8.3,16.9,20.7C-72.8-30.9-78.9-37.3-79.6-48.7z"/>
		</g>
		<g id="path4147" transform="matrix(1 0 0 1 -174.79 89.6)">
			<path class="st4" d="M-80-53c-4.9,11.2-4.1,20.3,5.2,26.4C-70.6-38.8-74.6-46.3-80-53z"/>
		</g>
		<g id="path4149-6" transform="matrix(1 0 0 1 -186.49 104.37)">
			<path class="st4" d="M-86.8-47.2c9.5-4.3,18.3-3.7,26,4.6C-71.6-38.3-80.2-39.7-86.8-47.2z"/>
		</g>
		<g id="path4003" transform="matrix(1 0 0 1 -125.76 125.79)">
			<path class="st4" d="M-141-55.2c61.7-25.4,53.5,26,91.3,17.7C-74.2-39.5-87.4-92.7-141-55.2z"/>
		</g>
		<g id="path4005" transform="matrix(1 0 0 1 -36.25 168.95)">
			<path class="st4" d="M-77.6-56.3c1.8,1.6,2.6,1.1,4,0c1.4-1,2.4-2.6-0.1-3.9C-83.9-65.4-95.5-80-132.8-80l-44.5-0.6l-4.7,5
				l47.9-0.5C-114.5-76.3-94.4-72-77.6-56.3z"/>
		</g>
		<g id="path4209" transform="matrix(1 0 0 1 -158.15 166.88)">
			<path class="st5" d="M-90.8-66.9l13.7-0.5"/>
		</g>
		<g id="path4207" transform="matrix(1 0 0 1 -181.74 152.48)">
			<path class="st5" d="M-84.2-65.5l17.3,6.8"/>
		</g>
		<g id="path4203" transform="matrix(1 0 0 1 -198.81 113.7)">
			<path class="st5" d="M-81.1-56l23.2,15.3"/>
		</g>
		<g id="path4213" transform="matrix(1 0 0 1 -158.04 110.23)">
			<path class="st5" d="M-80-43.2l-7.8-7.8"/>
		</g>
		<g id="path4211" transform="matrix(1 0 0 1 -138.12 116.52)">
			<path class="st5" d="M-86.5-45.9l-9-6.8"/>
		</g>
		<g id="path4205" transform="matrix(1 0 0 1 -190.04 133.67)">
			<path class="st5" d="M-80.1-60.1l15,9.3"/>
		</g>
		<g id="path4017" transform="matrix(1 0 0 1 -166.86 141.67)">
			<path class="st4" d="M-90.7-60.1c9.2-6.1,19.7-0.4,19.7,4.4C-77.3-53.4-85.9-51.2-90.7-60.1z"/>
		</g>
		<g id="path4019" transform="matrix(1 0 0 1 -160.6 123.6)">
			<path class="st4" d="M-92-59.6c-0.3,9.3,8.4,16.4,18,15.6C-76.3-54.1-87-60.1-92-59.6L-92-59.6z"/>
		</g>
		<g id="path4021" transform="matrix(1 0 0 1 -167.93 129.7)">
			<path class="st4" d="M-90.8-58c1.4,7.3,12.7,10.7,20.7,8.3C-71.5-57.2-85.8-60.8-90.8-58z"/>
		</g>
		<g id="path4015" transform="matrix(1 0 0 1 -142.13 128.07)">
			<path class="st4" d="M-96.7-62c10.3,1.1,13.7,10.3,14.9,17.3C-90.8-46.8-100.1-50.3-96.7-62z"/>
		</g>
		<g id="path4009" transform="matrix(1 0 0 1 -153.41 153.96)">
			<path class="st4" d="M-98.8-61.6c6.4-8.3,15.8-7,26.4-1.7C-80.5-55-89.6-57.1-98.8-61.6L-98.8-61.6z"/>
		</g>
		<g id="path4011" transform="matrix(1 0 0 1 -143.57 142.12)">
			<path class="st4" d="M-100.9-63.7c9.4-3.7,22.9,1.5,23.8,10.8C-86.8-50.3-101.6-52.6-100.9-63.7z"/>
		</g>
		<g id="path4013" transform="matrix(1 0 0 1 -121.51 135.95)">
			<path class="st4" d="M-104.6-66.6c7.9,3.9,16.3,7.2,15.5,20C-105.2-42.6-104.6-56-104.6-66.6z"/>
		</g>
		<g id="path4007" transform="matrix(1 0 0 1 -131.08 158.6)">
			<path class="st6" d="M-107.4-59c10.8,1.9,20.3-0.3,27.8-9.9C-87.8-71.8-100.6-69.9-107.4-59z"/>
		</g>
		<g id="path4215" transform="matrix(1 0 0 1 -178.75 107.23)">
			<path class="st5" d="M-73.7-43l-5.9-6.1"/>
		</g>
		<g id="path4001" transform="matrix(1 0 0 1 -53.35 158.92)">
			<path class="st4" d="M-154.2-59.1h13.1c12.1-8.7,16.9-18.7,37.4-19.5c7.5-0.3,14.5,6.6,15.9,9.8c-9.8-5.3-17.4-3.5-28.5,8.7
				c-5.3,5.8-12.2,9.4-21.5,10C-150.2-49.3-150-55.4-154.2-59.1z"/>
		</g>
		<g id="path4911" transform="matrix(1 0 0 1 177.42 69.82)">
			<path class="st4" d="M-202.8-32.8"/>
		</g>
		<g id="path4917" transform="matrix(1 0 0 1 171.47 -15.11)">
			<path class="st5" d="M-201.6-10.4l1.8,15.4"/>
		</g>
		<g id="path4919" transform="matrix(1 0 0 1 166.18 6.65)">
			<path class="st5" d="M-199.9-17.5l2.2,14.2"/>
		</g>
		<g id="path4921" transform="matrix(1 0 0 1 195.36 -10.42)">
			<path class="st5" d="M-209.6-11.9l0.8,15.1"/>
		</g>
		<g id="path4923" transform="matrix(1 0 0 1 205.96 1.82)">
			<path class="st5" d="M-212.4-16.5l-1.1,15.7"/>
		</g>
		<g id="path4925" transform="matrix(1 0 0 1 181.51 -24.34)">
			<path class="st5" d="M-202.8,12.5l-2.9-23.8"/>
		</g>
		<g id="path4927" transform="matrix(1 0 0 1 164.15 21)">
			<path class="st5" d="M-199.6-23l3,15.1"/>
		</g>
		<g id="path4929" transform="matrix(1 0 0 1 208.81 27.84)">
			<path class="st5" d="M-215.8-12.9l3.6-9.9"/>
		</g>
		<g id="path4933" transform="matrix(1 0 0 1 176.92 12.27)">
			<path class="st4" d="M-205.5-23.8c-2.9,9.3,3.1,19.8,6.6,22.9C-199.1-8-199.1-21.2-205.5-23.8z"/>
		</g>
		<g id="path4935" transform="matrix(1 0 0 1 174.9 29.56)">
			<path class="st4" d="M-206.6-28c9.6,2.5,7.7,10.2,9.5,19C-201.8-13.1-207.9-15.1-206.6-28z"/>
		</g>
		<g id="path4937" transform="matrix(1 0 0 1 193.52 13.89)">
			<path class="st4" d="M-207.2-23.3c5.7,6.4-0.1,15-2.8,20.8C-213.2-9.8-213.6-19.4-207.2-23.3z"/>
		</g>
		<g id="path4939" transform="matrix(1 0 0 1 197.08 29.99)">
			<path class="st4" d="M-204.5-30.1c-0.2,10.2-2.7,18.6-10.6,22.9C-214.4-19.1-211.8-28.2-204.5-30.1z"/>
		</g>
		<g id="path4941" transform="matrix(1 0 0 1 184.43 8.81)">
			<path class="st4" d="M-205.9-22.7c6.4,6.9,4,17.8,0.1,23.2C-207.7-5.1-211-16.9-205.9-22.7L-205.9-22.7z"/>
		</g>
		<g id="path4943" transform="matrix(1 0 0 1 186.15 32.91)">
			<path class="st4" d="M-205.7-32.6c-4.8,7.6-5.7,18.2-0.3,25.8C-200.2-13.7-201.8-25-205.7-32.6z"/>
		</g>
		<g id="path4945" transform="matrix(1 0 0 1 176.58 45.44)">
			<path class="st4" d="M-196-14.8c1.2-6.9-3.9-14.7-13.3-18.8C-209.4-19.8-203.3-13.1-196-14.8z"/>
		</g>
		<g id="path4947" transform="matrix(1 0 0 1 194.86 46.74)">
			<path class="st6" d="M-216.7-15.9c10.5-0.6,13.8-8,15.5-17.4C-208.7-31-213.7-25.2-216.7-15.9z"/>
		</g>
		<g id="path4953" transform="matrix(1 0 0 1 230.71 72.64)">
			<path class="st5" d="M-216.3-41l-10.9,14.5"/>
		</g>
		<g id="path4957" transform="matrix(1 0 0 1 229.45 55.09)">
			<path class="st5" d="M-217.8-34.4l-7,13.7"/>
		</g>
		<g id="path4959" transform="matrix(1 0 0 1 226.44 35.73)">
			<path class="st5" d="M-226.9-10.1l13.4-21.2"/>
		</g>
		<g id="path4961" transform="matrix(1 0 0 1 212 98.57)">
			<path class="st5" d="M-209.5-45.3l-11.2,4.7"/>
		</g>
		<g id="path4963" transform="matrix(1 0 0 1 212.44 34.12)">
			<path class="st5" d="M-218.7-14.2l7-11.7"/>
		</g>
		<g id="path4965" transform="matrix(1 0 0 1 193.51 50.22)">
			<path class="st5" d="M-210.2-21.4l3.3-8.9"/>
		</g>
		<g id="path4967" transform="matrix(1 0 0 1 181.85 63.08)">
			<path class="st5" d="M-207.6-25.6l6.4-9.5"/>
		</g>
		<g id="path4971" transform="matrix(1 0 0 1 214.81 72.91)">
			<path class="st4" d="M-209.1-40.3c-6.3-2.2-12.7-0.3-14,13.7C-214.6-28.7-209-33.4-209.1-40.3z"/>
		</g>
		<g id="path4973" transform="matrix(1 0 0 1 199.96 60.28)">
			<path class="st4" d="M-206-40.9c-9,4.6-11.9,15.8-9.9,23.1C-208.2-20.7-203.1-31.5-206-40.9z"/>
		</g>
		<g id="path4975" transform="matrix(1 0 0 1 187.85 75.66)">
			<path class="st4" d="M-204.5-47.4c5,9,1.2,17.2-5.3,25.1C-210.9-31.2-213-40.3-204.5-47.4z"/>
		</g>
		<g id="path4977" transform="matrix(1 0 0 1 208.37 61.57)">
			<path class="st4" d="M-206.7-39c1.9,6.1-4.6,19.6-14.5,18.3C-219.5-29.3-214-37.3-206.7-39z"/>
		</g>
		<g id="path4979" transform="matrix(1 0 0 1 206.38 89.77)">
			<path class="st4" d="M-201.5-45.2c-4.6,9.8-13.8,11-23.2,12C-217.5-40.4-210.8-50-201.5-45.2z"/>
		</g>
		<g id="path4981" transform="matrix(1 0 0 1 193.95 85.6)">
			<path class="st4" d="M-200.2-48.7c-9.2,2.7-15.9,8.3-16.9,20.7C-207.1-30.9-201-37.3-200.2-48.7z"/>
		</g>
		<g id="path4983" transform="matrix(1 0 0 1 174.79 89.6)">
			<path class="st4" d="M-199.9-53c4.9,11.2,4.1,20.3-5.2,26.4C-209.2-38.8-205.3-46.3-199.9-53z"/>
		</g>
		<g id="path4985" transform="matrix(1 0 0 1 186.49 104.37)">
			<path class="st4" d="M-193-47.2c-9.5-4.3-18.3-3.7-26,4.6C-208.3-38.3-199.6-39.7-193-47.2z"/>
		</g>
		<g id="path4987" transform="matrix(1 0 0 1 125.76 125.79)">
			<path class="st4" d="M-138.9-55.2c-61.7-25.4-53.5,26-91.3,17.7C-205.6-39.5-192.4-92.7-138.9-55.2z"/>
		</g>
		<g id="path4989" transform="matrix(1 0 0 1 36.25 168.95)">
			<path class="st4" d="M-202.3-56.3c-1.8,1.6-2.6,1.1-4,0c-1.4-1-2.4-2.6,0.1-3.9C-196-65.4-184.3-80-147-80l44.5-0.6l4.7,5
				l-47.9-0.5C-165.4-76.3-185.4-72-202.3-56.3L-202.3-56.3z"/>
		</g>
		<g id="path4991" transform="matrix(1 0 0 1 158.19 166.59)">
			<path class="st5" d="M-189.2-66.6l-13.7-0.9"/>
		</g>
		<g id="path4993" transform="matrix(1 0 0 1 181.9 152.55)">
			<path class="st5" d="M-195.9-65.5l-17.1,6.9"/>
		</g>
		<g id="path4995" transform="matrix(1 0 0 1 198.81 113.7)">
			<path class="st5" d="M-198.8-56L-222-40.6"/>
		</g>
		<g id="path4997" transform="matrix(1 0 0 1 158.04 110.23)">
			<path class="st5" d="M-199.9-43.2l7.8-7.8"/>
		</g>
		<g id="path4999" transform="matrix(1 0 0 1 137.88 116.79)">
			<path class="st5" d="M-193.5-45.9l9.3-7.1"/>
		</g>
		<g id="path5003" transform="matrix(1 0 0 1 189.9 133.64)">
			<path class="st5" d="M-199.7-60l-15.1,9.3"/>
		</g>
		<g id="path5007" transform="matrix(1 0 0 1 166.86 141.67)">
			<path class="st4" d="M-189.2-60.1c-9.2-6.1-19.7-0.4-19.7,4.4C-202.6-53.4-194-51.2-189.2-60.1z"/>
		</g>
		<g id="path5009" transform="matrix(1 0 0 1 160.6 123.6)">
			<path class="st4" d="M-187.9-59.6c0.3,9.3-8.4,16.4-18,15.6C-203.6-54.1-192.8-60.1-187.9-59.6z"/>
		</g>
		<g id="path5011" transform="matrix(1 0 0 1 167.93 129.7)">
			<path class="st4" d="M-189.1-58c-1.4,7.3-12.7,10.7-20.7,8.3C-208.3-57.2-194.1-60.8-189.1-58L-189.1-58z"/>
		</g>
		<g id="path5013" transform="matrix(1 0 0 1 142.13 128.07)">
			<path class="st4" d="M-183.2-62c-10.3,1.1-13.7,10.3-14.9,17.3C-189.1-46.8-179.8-50.3-183.2-62z"/>
		</g>
		<g id="path5015" transform="matrix(1 0 0 1 153.41 153.96)">
			<path class="st4" d="M-181.1-61.6c-6.4-8.3-15.8-7-26.4-1.7C-199.3-55-190.3-57.1-181.1-61.6z"/>
		</g>
		<g id="path5017" transform="matrix(1 0 0 1 143.57 142.12)">
			<path class="st4" d="M-178.9-63.7c-9.4-3.7-22.9,1.5-23.8,10.8C-193.1-50.3-178.3-52.6-178.9-63.7z"/>
		</g>
		<g id="path5019" transform="matrix(1 0 0 1 121.51 135.95)">
			<path class="st4" d="M-175.2-66.6c-7.9,3.9-16.3,7.2-15.5,20C-174.6-42.6-175.3-56-175.2-66.6z"/>
		</g>
		<g id="path5021" transform="matrix(1 0 0 1 131.11 157.99)">
			<path class="st6" d="M-172.5-58.6c-10.8,1.9-20.9,0.3-27.8-9.6C-190.7-72.5-179.3-69.5-172.5-58.6z"/>
		</g>
		<g id="path5023" transform="matrix(1 0 0 1 178.75 107.23)">
			<path class="st5" d="M-206.2-43l5.9-6.1"/>
		</g>
		<g id="path5025" transform="matrix(1 0 0 1 53.35 158.92)">
			<path class="st4" d="M-125.6-59.1h-13.1c-12.1-8.7-16.9-18.7-37.4-19.5c-7.5-0.3-14.5,6.6-15.9,9.8c9.8-5.3,17.4-3.5,28.5,8.7
				c5.3,5.8,12.2,9.4,21.5,10C-129.7-49.3-129.9-55.4-125.6-59.1z"/>
		</g>
		<g id="path4400" transform="matrix(1 0 0 1 58.52 73.81)">
			<path class="st3" d="M-152.5-47.5c-2.4,2.9-8.9,4.5-10.5,8.7c0,3,0,6.1,0,9.2c-0.1,0.6-0.4,1.1-0.6,1.3c-0.6-1.2-0.4-3.1-1.9-2.8
				c-1,0.1-1.9,2.4-1.8,5c0.4,0.6,2.2-0.5,2.3,0.3c0,1.8-1.6,3.5-3.7,4.7c-0.3,0-0.3,0.3,0.5,0.4c1.2-0.6,2.7-0.8,4.1-1.2
				c0.4-1.1,0.7-1.9,0.5-4.5c0.7-0.6,0.9-1.4,0.9-2.4c0.7,1,1.9,1.8,3.3,1.9c3.1-0.2,4.7-5.3,6.7-7.2c-0.1-0.3,0-0.3-0.1-0.6
				c-1.2-0.2-2.4-1.3-4-1.2c-1.1,0-2.9,2.2-3.4,5.3c-0.7,0.7-2-0.8-2-1.8c0-2.3,0.1-2.8,0-5c1.3-2.7,3.5-3.1,6.4-5
				C-153.4-43.9-152.4-46.4-152.5-47.5L-152.5-47.5z M-155.8-34.7c1.1,0,1.4,0.4,1.3,0.7c-0.8,2-2.7,3.2-4.8,3.2
				c0.4-1.6,1.8-3.7,3-3.8C-156.1-34.7-155.9-34.7-155.8-34.7z"/>
		</g>
		<g id="_x33_5877496" transform="matrix(1 0 0 1 22 88.19)">
			<path class="st3" d="M-136.2-46.8c0.8,0.1,0.8,2.2,2.4,1.9c0.6,1.1-0.2,2.2-0.6,3.4c-0.7,0.4-1.9-0.2-2.7-0.6
				c-1.3,0.9-0.9,3.5-2.5,4c-0.9,0-1.5-0.8-2.4-0.8c-2.9,3.9-9.6,7.3-15.3,7.3c-3.6,0-4.9-1.2-4.6-3.6c0.1-1.2,0.2-2.5,0.7-3.5
				c0.2,0,0.4,0,0.7-0.1c-0.6,2.6,0.4,3.4,2.4,3.4c6.8-0.1,11.6-1.3,15.6-4.7c0.7-0.1,1.8,0.6,2.2,0.2c0.8-0.8,0.6-1.9,1.2-2.8
				c0.1-0.1,0.9-0.6,1-0.6C-137.8-44.9-137.5-46.1-136.2-46.8z"/>
		</g>
		<g id="_x33_6817240" transform="matrix(1 0 0 1 17.58 85.37)">
			<path class="st3" d="M-146.5-40.3c0.5-0.6,1.7,1.6,2.6,2.4c0.3,0.3-1.2,1.2-1.9,1.8c-0.2,0.2-1.7-1.7-2.5-2.6
				C-148.5-38.9-147.1-39.7-146.5-40.3L-146.5-40.3z"/>
		</g>
		<g id="_x33_6886800" transform="matrix(1 0 0 1 12.32 86.06)">
			<path class="st3" d="M-144.7-40.6c0.5-0.6,1.7,1.6,2.6,2.4c0.3,0.3-1.3,1.1-2,1.8c-0.2,0.2-1.6-1.7-2.5-2.5
				C-146.7-39.1-145.2-40-144.7-40.6L-144.7-40.6z"/>
		</g>
		<g id="_x33_6886888" transform="matrix(1 0 0 1 -23.16 74.16)">
			<path class="st3" d="M-131.3-36.3c0.7-0.4,0.9,2.1,1.5,3.2c0.1,0.4-1.6,0.6-2.5,0.9c-0.3,0.1-0.9-2.2-1.3-3.2
				C-133.7-35.7-132.1-36-131.3-36.3L-131.3-36.3z"/>
		</g>
		<g id="_x33_6886976" transform="matrix(1 0 0 1 -67 88.08)">
			<path class="st3" d="M-115.8-41.3c0.7-0.4,0.9,2.1,1.5,3.2c0.2,0.4-1.6,0.6-2.5,0.9c-0.3,0.1-0.9-2.2-1.4-3.2
				C-118.2-40.6-116.5-40.9-115.8-41.3L-115.8-41.3z"/>
		</g>
		<g id="_x33_5879432" transform="matrix(1 0 0 1 -43.1 100.96)">
			<path class="st3" d="M-124.3-45.9c0.7-0.3,0.9,2.1,1.5,3.2c0.2,0.4-1.6,0.6-2.5,0.9c-0.3,0.1-0.9-2.2-1.3-3.3
				C-126.6-45.2-125-45.5-124.3-45.9L-124.3-45.9z"/>
		</g>
		<g id="_x33_6888384" transform="matrix(1 0 0 1 -24.09 91.72)">
			<path class="st3" d="M-131-42.6c0.7-0.4,0.9,2.1,1.5,3.2c0.2,0.4-1.6,0.6-2.5,0.9c-0.3,0.1-0.9-2.2-1.3-3.3
				C-133.4-41.9-131.8-42.2-131-42.6L-131-42.6z"/>
		</g>
		<g id="_x33_5878904" transform="matrix(1 0 0 1 -18.6 94)">
			<path class="st3" d="M-132.9-43.4c0.7-0.3,0.9,2.1,1.5,3.2c0.2,0.4-1.6,0.6-2.5,0.9c-0.3,0.1-0.9-2.2-1.4-3.3
				C-135.3-42.8-133.7-43-132.9-43.4L-132.9-43.4z"/>
		</g>
		<g id="_x33_6887504" transform="matrix(1 0 0 1 -23.48 98.58)">
			<path class="st3" d="M-131.2-45c0.7-0.4,0.9,2.1,1.5,3.2c0.2,0.4-1.6,0.6-2.5,0.9c-0.3,0.1-0.9-2.2-1.3-3.2
				C-133.6-44.4-131.9-44.7-131.2-45L-131.2-45z"/>
		</g>
		<g id="_x33_5877232" transform="matrix(1 0 0 1 -30.72 80.96)">
			<path class="st3" d="M-121-35.7c-0.8,0.8-1.6,1.3-3,0.9c-0.7-0.6-0.3-1.7-1-2c-2.2-0.4-7.8,0.5-8.2,2.7c1.1,0.6,2.5,1.2,3.8,1.6
				c-0.9,0.4-2.7,0.8-4.1,0.5c-1.8,0.1-2.1-1.7-0.9-3.8c1.3-3,3-5.9,4-8.9c-0.7,0.6-1.1,1.2-2.1,1.1c-1.7,4.4-3.4,7.5-4.5,10.9
				c-0.4,1.1,0.1,3.5,2.1,4.1c3.4,0.7,6.2-2.5,8.5-3.3c0.1-0.4,0.1-0.3,0.2-0.7c-1.1-0.6-3.7-1.8-4.8-2.4c1-0.9,3.8-0.6,5.3-0.1
				c0.8,0.4,0.6,1.7,1.6,1.9c1.3,0.2,2.9-0.6,3.4-1.7C-120.9-35.3-120.9-35.5-121-35.7L-121-35.7z"/>
		</g>
		<g id="_x33_6887856" transform="matrix(1 0 0 1 -59.68 76.52)">
			<path class="st3" d="M-109.2-32.7c-0.1,0.4-0.1,0.2-0.2,0.6c-3.6,2.2-8,3.7-16.2-0.9c-4.9-2.7-2-5.7-0.7-7.3
				C-125-35.5-118.5-31.4-109.2-32.7L-109.2-32.7z"/>
		</g>
	</g>
</g>
</svg>
