<?xml version="1.0" encoding="utf-8"?>
<!-- Generator: Adobe Illustrator 27.0.0, SVG Export Plug-In . SVG Version: 6.00 Build 0)  -->
<svg version="1.1"
	 id="svg2" xmlns:rdf="http://www.w3.org/1999/02/22-rdf-syntax-ns#" xmlns:svg="http://www.w3.org/2000/svg" xmlns:dc="http://purl.org/dc/elements/1.1/" xmlns:inkscape="http://www.inkscape.org/namespaces/inkscape" xmlns:cc="http://web.resource.org/cc/" xmlns:sodipodi="http://sodipodi.sourceforge.net/DTD/sodipodi-0.dtd"
	 xmlns="http://www.w3.org/2000/svg" xmlns:xlink="http://www.w3.org/1999/xlink" x="0px" y="0px" viewBox="0 0 512 512"
	 style="enable-background:new 0 0 512 512;" xml:space="preserve">
<style type="text/css">
	.st0{fill:#D90404;stroke:#FE0000;stroke-width:1.3474;}
	.st1{stroke:#000000;stroke-width:1.3302;}
	.st2{fill:#00CEFF;stroke:#FFFFFF;stroke-width:6.6733;}
	
		.st3{fill-rule:evenodd;clip-rule:evenodd;fill:#FFD200;stroke:#FFD200;stroke-width:1.1557;stroke-linecap:round;stroke-linejoin:round;}
	.st4{fill:#FFD200;stroke:#956D00;stroke-width:1.4368;stroke-linecap:round;stroke-linejoin:round;stroke-miterlimit:5.8074;}
	.st5{fill:#FFD200;stroke:#956D00;stroke-width:1.1903;stroke-linecap:round;stroke-linejoin:round;stroke-miterlimit:4.8112;}
	.st6{fill-rule:evenodd;clip-rule:evenodd;fill:#009D00;stroke:#2D8A77;stroke-width:1.1557;}
	
		.st7{fill-rule:evenodd;clip-rule:evenodd;fill:#FBFDFF;stroke:#459FD1;stroke-width:1.1557;stroke-linecap:round;stroke-linejoin:round;}
	.st8{fill:none;stroke:#FFFFFF;stroke-width:7.0646;}
	.st9{fill:none;stroke:#FFFFFF;stroke-width:2.8892;stroke-linecap:round;stroke-linejoin:round;}
	.st10{fill:none;stroke:#FFFFFF;stroke-width:3.8138;stroke-linecap:round;stroke-linejoin:round;}
	
		.st11{fill-rule:evenodd;clip-rule:evenodd;fill:#FFFFFF;stroke:#FFFFFF;stroke-width:1.1557;stroke-linecap:round;stroke-linejoin:round;}
	.st12{fill-rule:evenodd;clip-rule:evenodd;fill:#FFFFFF;stroke:#FFFFFF;stroke-width:1.3868;}
	.st13{fill:none;stroke:#FFFFFF;stroke-width:2.5425;stroke-linecap:round;stroke-linejoin:round;}
	.st14{fill-rule:evenodd;clip-rule:evenodd;fill:#FFFFFF;stroke:#FFFFFF;stroke-width:0.5778;}
	
		.st15{fill-rule:evenodd;clip-rule:evenodd;fill:#FFFFFF;stroke:#FFFFFF;stroke-width:1.5024;stroke-linecap:round;stroke-linejoin:round;}
	
		.st16{fill-rule:evenodd;clip-rule:evenodd;fill:#FFFFFF;stroke:#FFFFFF;stroke-width:0.6934;stroke-linecap:round;stroke-linejoin:round;}
	.st17{fill-rule:evenodd;clip-rule:evenodd;fill:#FFFFFF;stroke:#FFFFFF;stroke-width:1.1557;}
	
		.st18{fill-rule:evenodd;clip-rule:evenodd;fill:#FFFFFF;stroke:#FFFFFF;stroke-width:3.3515;stroke-linecap:round;stroke-linejoin:round;}
	.st19{fill:#FFFFFF;stroke:#FFFFFF;stroke-width:3.0636;stroke-linecap:round;stroke-linejoin:round;stroke-miterlimit:4.2414;}
	.st20{fill:#FFFFFF;stroke:#FFFFFF;stroke-width:3.1507;stroke-linecap:round;stroke-linejoin:round;stroke-miterlimit:4.3621;}
	.st21{fill:#FFFFFF;stroke:#FFFFFF;stroke-width:2.9764;stroke-linecap:round;stroke-linejoin:round;stroke-miterlimit:4.1207;}
	.st22{fill:#FFFFFF;stroke:#FFFFFF;stroke-width:3.3687;stroke-linecap:round;stroke-linejoin:round;stroke-miterlimit:4.6638;}
</style>
<sodipodi:namedview  bordercolor="#666666" borderopacity="1.0" gridtolerance="10.0" guidetolerance="10.0" id="base" inkscape:current-layer="svg2" inkscape:cx="158.8667" inkscape:cy="103.70839" inkscape:pageopacity="0.0" inkscape:pageshadow="2" inkscape:window-height="955" inkscape:window-width="1272" inkscape:window-x="0" inkscape:window-y="1" inkscape:zoom="2.8284272" objecttolerance="10.0" pagecolor="#ffffff">
	</sodipodi:namedview>
<g id="g7393">
	<rect id="rect1873" y="85.3" class="st0" width="512" height="341.3"/>
	<rect id="rect1875" x="108.7" y="85.3" class="st1" width="107.4" height="341.3"/>
</g>
<g id="g7382">
	
		<path id="path1879" sodipodi:cx="135.51591" sodipodi:cy="99.266716" sodipodi:rx="49.668728" sodipodi:ry="49.668728" sodipodi:type="arc" class="st2" d="
		M217.1,247.9c0,30-24.4,54.4-54.5,54.4s-54.5-24.4-54.5-54.4s24.4-54.4,54.5-54.4S217.1,217.9,217.1,247.9z"/>
	<path id="path6326" class="st3" d="M192.7,241.7l18.4-5.3l-13.8-0.3l11.4-6.9l-13.3,2.9l8.4-10l-11.8,6.6l5.6-12.1l-9.7,9.4
		l1.7-12.3l-6.1,11.9l-2.2-12.9l-1.8,13.5l-6.3-12.2l1.2,13l-9.7-10.4l5.9,12.4l-12.7-7.8l9.3,11.1l-12.5-3.6l10.4,6.3l-14,1.1
		L168,240L192.7,241.7z"/>
	
		<path id="path5435" sodipodi:cx="160.61035" sodipodi:cy="91.004883" sodipodi:rx="7.8408203" sodipodi:ry="7.8408203" sodipodi:type="arc" class="st4" d="
		M194.7,240.5c0,7.3-5.9,13.2-13.2,13.2s-13.2-5.9-13.2-13.2s5.9-13.2,13.2-13.2C188.8,227.4,194.7,233.3,194.7,240.5z"/>
	
		<path id="path6324" sodipodi:cx="160.61035" sodipodi:cy="91.004883" sodipodi:rx="7.8408203" sodipodi:ry="7.8408203" sodipodi:type="arc" class="st5" d="
		M192.5,240.5c0,6-4.9,10.9-10.9,10.9s-10.9-4.9-10.9-10.9s4.9-10.9,10.9-10.9S192.5,234.5,192.5,240.5z"/>
	<path id="path2768" sodipodi:nodetypes="cssssssssssssssssssssssssssssssssssssssssssssssssssc" class="st6" d="M111.3,257.2
		c-0.5-0.4,3.4-3,4.3-3.5c1.5-0.9,3.2-2.3,4.5-3.5c1.1-1.1,2.4-2,3.8-2.8c1.7-1,3.2-2.8,4.5-3.8c1.5-1.1,2.4-1.8,4-2.6
		c1.3-0.7,3-0.5,4.5-0.5c1.6,0,3.7,1.8,4.5,2.6c0.9,0.9,1.7,1.6,2.8,1.9c1.1,0.3,2.6,0,3.8,0c1.3,0,2.5,0,3.8,0c1.9,0,4-0.8,5.7-1.7
		c1.6-0.8,2.8-1.3,4.7-1.7c1.3-0.3,3-1,4.3-1.7s2.8-1.2,4.3-1.2c3.2,0,6.9,3.3,9.2,5.2c1.5,1.2,2.8,2.7,3.8,4s-0.7,2.1,1.7,2.1
		c1.1,0,2.4-1.4,2.8-1.9c1.2-1.2,2.3-1.7,4-1.7c2.5,0,3.5,0.5,5-0.9c0.7-0.7,1-2,1.4-2.8c0.5-1,2.2-0.6,2.8-0.5
		c0.9,0.2,1.8,0.5,3.1,0.5c0.9,0-1.2,0,1.4,0c1.6,0,2.8,1.7,3.9,2.1c1,0.4,2.3,0.7,2.7,1.4c0.7,1.4,2.2,3.3,3.1,5
		c0.6,1.1,0,4.2,0,5.4c0,1.7,0,3.3,0,5c0,2.8-1.7,5.1-2.8,7.3c-1.2,2.4-3.9,4.4-5.2,6.6c-1.5,2.5-3.7,4.9-5,7.3
		c-1,2-2.2,1.5-2.8,3.3c-0.3,0.9-2.8,2.2-3.5,2.8c-2.3,1.8-4.9,2.8-7.3,4.3c-1.7,1-3.1,2-4.5,3.1c-1.9,1.4-4.6,1.6-6.6,2.6
		c-2.7,1.4-4.7,1.7-7.8,1.7c-3.9,0-7.7,0-11.6,0c-2.3,0-4.7-0.8-6.4-1.7c-2.1-1-4.8-1.7-7.1-1.7c-2,0-4.2-2.1-6.1-2.6
		c-2.9-0.7-5.3-2.5-7.8-4c-2.2-1.3-3.3-2.3-5-4c-1.4-1.4-2.4-2.5-3.5-4c-1.6-2.2-2.9-4.1-4.5-6.1c-1.1-1.5-1.8-3.9-3.1-5.2
		c-0.8-0.8-0.8-4-1.4-5.2c-0.4-0.9,0-2.8-0.2-3.8c-0.4-1.7-0.4-1.6-1.7-2.8C110.8,258.9,111.1,258.4,111.3,257.2z"/>
	<path id="path2772" sodipodi:nodetypes="csssssssssssssssssscccsssssssc" class="st7" d="M126.9,244.4c-0.3-1.1,1.1-2.5,2.1-3.2
		c1-0.8,1.8-2,2.6-3.1c0.9-1.2,1.8-2.4,2.4-3.5c0.6-1.1,0.8-1.8,1.2-3.3c0.2-0.8,0.6-0.5,1.4-0.7c0.8-0.2,1.5-2.2,1.8-2.1
		c1.1,0.4,2.4,1.5,2.7,2.9c0.3,1.2,0.6,1.9,1.4,2.9c0.6,0.8,0.8,1.6,1.6,2.5c0.7,0.7,1,2.7,1.4,3.5c0.8,1.6,1.8,1.2,2.1,3
		c0.2,1.1,3.1,4.3,3.1,5.6c0,1.6,0.2,3.3,0.5,4.5c0.4,2.1,0.3,4.7,1.2,6.5c0.8,1.7,1.6,2.7,2.8,4.4c1.1,1.5,2,3.9,3,4.9
		c1.9,2.1,11.3,14.4,17.8,18.6c1.6,1,5.2,2.6,4.8,4.2c-0.1,0.5-1.4-0.6-2.8-1.3c-3.2-0.2-4.6-2.6-9.6-5.4
		c-3.5-2.5-10.8-11.2-12.1-13c-1.8-1.7-2.6-2.4-4-3.8c-1.8-1.8-6.4-11.4-7.5-12.9c-1.2-1.6-1.6-3.4-2.4-5c-1-2.1-1.8-2.9-3.6-1.5
		c-1.5,1.2-2.6-1.3-3.1-2.4c-0.6-1.5-1.1-3.8-2-4.3c-1-0.5-2.1,1.1-3.5,1.1C129.1,243.3,128.6,244.5,126.9,244.4z"/>
	<path id="path3659" sodipodi:nodetypes="csssssssssssssssssssscssssc" class="st7" d="M155,244.2c0.7-0.6,4-3.2,5.2-4
		c1.6-1.2,2.7-1.1,4.5-1.8c1.7-0.7,2.1-1.6,3.4-2.9c1.2-1.2,2.4-2.4,3.3-3.5c1.1-1.4,2.7-2.6,4.3-3.8c1.3-1,3.4-2.6,4.5-2.2
		c0.6,0.2-0.1,10.5,0.2,12.2c0.3,2.3,2.7,7.9,4,9.6c1.7,2.3,2.9,5.1,4.6,7.4c2.8,3.7,3.9,3.7,5.1,6.7c0.7,1.7,1.5,2.3,2.4,4
		s1.2,2.4,2.5,3.8c1,1,3.1,1.9,4,2.6s1.8,1.9-0.1,2.4c-1.8,0.5-3.7-0.9-5.2-1.7c-1.4-0.7-2.4-1.2-3.3-2.1c-0.9-0.9-0.9-2.8-1.4-3.8
		c-0.9-1.8-2.4-2.7-3.3-4.5c-0.9-1.8-3.1-2.5-4.3-4.5c-1-1.6-2.6-2.1-3.4-3.6c-1-2-3.1-4.2-3.8-7.9c-1.2,0.6-4.1,2.1-5.4,0.9
		c-1.5-1.5-2.3-3.5-3.3-5.2c-0.9-1.6-3.4-0.9-4.7-0.2c-1.7,0.8-2.9,1.2-5,1.2C158.4,243.2,156.4,244.3,155,244.2z"/>
	
		<path id="path4548" sodipodi:cx="135.51591" sodipodi:cy="99.266716" sodipodi:rx="49.668728" sodipodi:ry="49.668728" sodipodi:type="arc" class="st8" d="
		M217.5,247.5c0,30.3-24.6,54.8-54.9,54.8s-54.9-24.5-54.9-54.8s24.6-54.8,54.9-54.8S217.5,217.3,217.5,247.5z"/>
	<path id="path3661" sodipodi:nodetypes="cssssssssssssssssssssssss" class="st7" d="M187.3,248.9c-0.1-0.2,0.5-0.7,0.9-1.1
		c0.9-0.9,2-1.6,3.1-2.4c0.2-0.2,0.5-0.4,0.7-0.6c1.2-1,2.1-2,3.2-3.1c0.8-0.8,1.5-1.5,2.1-2.4c0.2-0.4,0.7-0.7,1.1-0.8
		c0.8-0.2,1.6,0.5,2.3,0.9c0.2,0.1,0.4,0.3,0.6,0.4c1.2,0.8,2.5,1.4,3.7,2.1c1.2,0.7,2.2,1.4,3.4,1.9c0.9,0.4,2.3,0.5,3.1,1.3
		c0.4,0.4,0.6,0.5,0.7,1.1c0.2,0.7-1.4-0.1-1.5-0.2c-1.5-0.8-3.3-1.4-5.1-1.4c-1.2,0-2.7-0.2-3.8-0.5c-0.7-0.2-1.4-0.6-2.1-0.4
		c-0.9,0.2-0.8,1.9-0.8,2.5c0,2.1,0.4,4.2,0.4,6.3c0,1.1-0.1,2.2-0.9,1c-0.1-0.2-0.3-0.4-0.5-0.6c-0.6-0.8-0.9-1.6-1.5-2.4
		c-0.4-0.5-1.3-1.1-1.9-1.2c-1.1-0.2-2.6-0.1-3.8-0.1C189.4,249.2,187.5,249.2,187.3,248.9z"/>
</g>
<g id="g7346">
	<path id="path6328" sodipodi:nodetypes="ccc" class="st9" d="M118.4,150.5l7.3,2.3l-4.4,4.3"/>
	<path id="path7215" class="st10" d="M114.8,163.1l20.9-6.5"/>
	<path id="path8987" sodipodi:nodetypes="ccc" class="st9" d="M124.7,171.1l4.3,1.4l-4.2,3.4"/>
	<g id="g3665">
		<path id="path10765" sodipodi:nodetypes="cssssssssssssssc" class="st9" d="M171.3,151.5c0,0,0.4-1.2,0.8-2.6
			c1.3-3.6-8.3-3-9.9-3.1c-2-0.1-16.8,0.7-19.1,7c-1.6,4.3,8.3,7.7,10.5,9.9c1.6,1.6,5,3.2,5.7,6c0.8,3.5,2,5.9-5.3,9.4
			c-1.8,0.9-5.2,1-7.5-2.1c-1.4-1.8-1.7-9.2-1.7-11.8c0-1.2-1.3,4-1.4,4.5c-0.6,2.2-3.3,4.2-5.1,1.9c-2-2.5-2-4.7-3.4-7.1
			c-0.9-1.6,1.3,6.7,1.3,7.5c0.2,2.4,0.2,5.9-4.7,8.5c-6.5,3.5-15.4,3.4-16-3c-0.1-1.4,1.7-4.3,3.4-5.5"/>
		<path id="path1887" sodipodi:nodetypes="csss" class="st11" d="M118.6,170.5c2.4-2,6.6-4.2,6.7-4.2c0,0-5.1,5.2-5.8,5.7
			C119.2,172.2,118.3,170.7,118.6,170.5z"/>
		<path id="path2778" sodipodi:nodetypes="ccsss" class="st12" d="M140.9,172.7c-0.1,1.1,0.3,2.1-0.1,3.2c-0.1,0.8-0.7,1.8-0.7,2.5
			c0,1.5,0.4,3.2,1.5,2.3c0.9-0.7,0.4-3.2-0.7-5.3"/>
	</g>
	<path id="path3670" class="st13" d="M150.6,153.3c-1.1,0.4-2,1-3,1.5l-0.1,0.1"/>
	<path id="path4557" sodipodi:nodetypes="ccsscsss" class="st14" d="M157.3,158.7c-1.1-2.8-1.1-4.4-1.5-6.4c0.1-2.1,0.7-3,2.2-2.9
		c0.9,0,1,1.9,1,2.6c0,1.2-0.4,2.7-0.4,4c0.1,1.4,0.2,3.6,0.8,5c0.8,2.1,2,3.2,1.4,3.9C160.1,165.6,158.4,161.2,157.3,158.7z"/>
	<path id="path1889" sodipodi:nodetypes="cscsc" class="st9" d="M162.8,168.4c-0.7-1.5,11.1-15.2,6.8-1.3s13.4,15.6,10.9-3.2
		c-2.3,21.1,20.8,18.6,11.9,2.3c-6.5-12,4.6-2.4,4.6-2.4"/>
	<path id="path2781" sodipodi:nodetypes="csssss" class="st15" d="M163.5,175.3c0,0,1.1,5,2.8,6.5c0.6,0.5,2.2,0.3,2.7,0.1
		c1-0.5,0.8-1.7,0.1-1.9c-0.6-0.2-1.5,0.3-2.8-0.2s-2.2-2.6-2.4-3.1"/>
	<path id="path3701" sodipodi:nodetypes="cssssssss" class="st16" d="M163.8,156.4c-2.7,0.3-0.2-4.2,2.5-4.1
		c2.9,0.1,0.9,3.6,4.1,2.6c1.6-0.5,2.7,2.6,0.4,2.8c-3.2,0.2-4.6,0.6-6.1,2c-1.5,1.5-4.3-0.1-3-1.7c1.2-1.5,4.4-0.6,5.7-1.9
		c0.8-0.8-0.1-1.6-0.8-1.8C164.4,153.8,164.6,156.3,163.8,156.4z"/>
	<path id="path4592" sodipodi:nodetypes="cscsssss" class="st14" d="M177,155.3c0.1-0.3-2.8,1-2.6,3.6c0.2,3.9,4.1,2.9,6,1.4
		c5.1,2.3,7.7-5.2,2.9-8.5c-0.5-0.3,2,5.9-0.5,6.7c-1.6,0.6-2.3-3-2.5-3c-0.4,0-0.3,2.8-2.1,3C175.9,158.9,176.8,156,177,155.3z"/>
	<path id="path5479" sodipodi:nodetypes="cssss" class="st14" d="M179.4,150.6c-0.5-1.2-1.2-3.5,0.2-5c1-1.1,2.9-1,3.2,0.3
		c0.5,1.9-1.8,1.7-1.5,3.7C181.8,152.3,180.6,153.3,179.4,150.6z"/>
	<path id="path6568" sodipodi:nodetypes="cssss" class="st17" d="M196,180.4c-0.3,4.5,7,2.9,5.5,0.4c-0.2-0.3-2.2,0.4-2.8-0.6
		c-0.8-1.3,3.3-3.5,2.2-4.9C200.1,174.1,196.1,178.5,196,180.4z"/>
	<path id="path7019" sodipodi:nodetypes="ccc" class="st18" d="M205,179.4l-4.6-31.9l2.7,4.5"/>
	<path id="path8791" sodipodi:nodetypes="cc" class="st13" d="M206.3,156.2l-3-4.6"/>
	<path id="path3752" sodipodi:nodetypes="cssc" class="st11" d="M188.2,152.3c0.5-3.3,7.1-6,7.3-2.6c0,0.4-1.8,0-3.5,0.5
		C190.1,150.8,188.2,152.5,188.2,152.3z"/>
	<path id="path4639" sodipodi:nodetypes="cssss" class="st17" d="M194,151.7c-1-0.6-4.6,4.3-4,5.4c0.7,1.2,8.2-0.2,8-1.3
		c-0.2-1.3-2.1,0.3-3.4-0.7C193.4,154,195.7,152.7,194,151.7z"/>
</g>
<g id="g7367">
	<path id="path6817" sodipodi:nodetypes="csccccsccccccccccsc" class="st17" d="M100.8,299.1c-9.9,7.5-18.6,18.3-19.1,31.1
		c-0.4,11.9,11.8,11.5,16.6,7.9c1.6,8.4,10,10.2,24.8,9c2,5.1,9.4,5,11.1,0.4c2.3,5.1,8.1,5.4,12.1,1.5c2.2,3.8,11.3,6.8,14.9,0.5
		c2.7-4.8,5.4-10.6-0.4-27c-1.1-0.2-2.4-0.1-3.3-0.1c7.5,18.7-4.6,39-9.5,16.7c-0.8-0.1-0.9,0.5-2.1,0.5c-1.9,14.6-10.6,5.9-8-2.1
		c-0.4-0.1-1.3-0.4-2.6-0.1c0.1,11.5-14.3,13.8-8.3-1.4c-1.7-0.8,0.6,0.2-2.4-0.9c-8.1,16.4-29,6-21.3-3.4c-0.1-0.1-1-0.8-1.4-1.2
		c-7.7,9-16.5,8-15.7-1.2C87.5,316.4,95.2,305.4,100.8,299.1z"/>
	
		<path id="path5526" sodipodi:cx="55.949825" sodipodi:cy="155.03976" sodipodi:rx="1.6793786" sodipodi:ry="1.6793786" sodipodi:type="arc" class="st19" d="
		M68.7,311.6c0,1.1-0.9,2.1-2.1,2.1c-1.1,0-2.1-0.9-2.1-2.1l0,0c0-1.1,0.9-2.1,2.1-2.1C67.8,309.6,68.7,310.5,68.7,311.6L68.7,311.6
		z"/>
	
		<path id="path5528" sodipodi:cx="55.949825" sodipodi:cy="155.03976" sodipodi:rx="1.6793786" sodipodi:ry="1.6793786" sodipodi:type="arc" class="st20" d="
		M114.9,318.3c0,1.2-0.9,2.1-2.1,2.1s-2.1-0.9-2.1-2.1l0,0c0-1.2,0.9-2.1,2.1-2.1S114.9,317.1,114.9,318.3L114.9,318.3z"/>
	
		<path id="path5530" sodipodi:cx="55.949825" sodipodi:cy="155.03976" sodipodi:rx="1.6793786" sodipodi:ry="1.6793786" sodipodi:type="arc" class="st21" d="
		M105.2,316.7c0,1.1-0.9,2-2,2s-2-0.9-2-2l0,0c0-1.1,0.9-2,2-2C104.3,314.7,105.2,315.6,105.2,316.7L105.2,316.7z"/>
	
		<path id="path5532" sodipodi:cx="55.949825" sodipodi:cy="155.03976" sodipodi:rx="1.6793786" sodipodi:ry="1.6793786" sodipodi:type="arc" class="st22" d="
		M153.8,319.8c0,1.2-1,2.3-2.3,2.3c-1.2,0-2.3-1-2.3-2.3l0,0c0-1.2,1-2.3,2.3-2.3S153.8,318.6,153.8,319.8L153.8,319.8z"/>
	<path id="path5534" sodipodi:nodetypes="cssscc" class="st11" d="M57.9,300.9c-2.1,7-7.5,24.5,6.4,24.6
		c22.3,0.1,12.6-27.8,12.3-27.8c-0.9,0-0.2,24.7-12,24.1c-9.2-0.5-3.9-14.5-2.3-19.6C60.8,301.4,59.8,301,57.9,300.9z"/>
	<path id="path6421" class="st11" d="M257.7,284.3c-3.3,1.9-3.9,2.4-6.7,4c22.5,26.9-2,21.3-2.3,13.8c-1.5,0.7-2.5,0.9-3.8,1.6
		c6.8,16.4-9.5,16.7-10.9,9.5c-1.7,1-0.2,0.2-3.6,2.1c9.7,9-4.8,13.6-10.1,13c-1.4-1.3-0.3-5.3,0.1-7.4c-2.1,0-3.2,0-4.5,0.2
		c-1.2,18.8-20.9,21.1-22.3,18.7c-0.3-2.9,2.7-5.1,2.7-5.1l-3.1-2.3c0,0-2.7,6-4.9,6.5c-0.1-9.4-5.1-10.3-6.2-10.8
		c-17.4,13.9-6.3,26.9,0.7,20c1.2,14.1-18.1,25.9-21.6,10.4c-3,0.7-1.3,0.1-4.3,1.2c1.6,4.5,2.7,11.1,11.3,11.1
		c11.3-0.1,20.9-12.7,19.6-26c2.2,0.4,2.5-0.3,3-2.5c8.2,6.3,19.2,0.7,27.6-11.1c8.8,3.4,15.3-2.1,18.7-8.1
		c8.3-0.3,11.3-2.3,12.7-10.9C263,314.2,271.4,311.6,257.7,284.3z M181.8,335.1c1-0.4,3.2,3.7,3.4,6.1c0.2,2.6-3,4.3-4.7,3.4
		c-4.6-2.6,0.1-8,1.1-9.3C181.6,335.2,181.7,335.1,181.8,335.1z"/>
	<path id="path7333" sodipodi:nodetypes="cssss" class="st17" d="M183.8,326.8c-0.3-0.4-0.5-8.2-0.1-8.5c0.5-0.4,3.8,2,4.3,2.9
		c0.3,0.4-2.4,5.9-2.8,6.2C184.8,327.7,184,327.1,183.8,326.8z"/>
	<path id="path7335" sodipodi:nodetypes="csss" class="st17" d="M194.4,315.1c-1.1,0-2.7,6.2-2.6,8.9c0,0.8,3.9,0.7,4.2,0.2
		C197,322.7,195.5,315.2,194.4,315.1z"/>
	<path id="path7337" sodipodi:nodetypes="cssss" class="st17" d="M231.5,305.3c-1.1-1.1,1.1-1.7,1.8-4.1c0.8-2.9-0.3-7.3,0.8-6.9
		c2.1,0.7,5.3,4.2,4.5,7.1C237.9,304.1,233,306.7,231.5,305.3z"/>
	<path id="path7339" sodipodi:nodetypes="cssss" class="st17" d="M244.9,330.3c3-2.9,4.3-8,5.4-7.4c1.6,0.9,4.7,2.6,4,3.4
		c-1.4,1.7-2.8,4.5-3.5,4.5C248.2,331.1,244.3,330.9,244.9,330.3z"/>
	<path id="path7341" sodipodi:nodetypes="csssss" class="st17" d="M259.8,317.8c0.7-1.1,3-1.9,5.1-3.1c3-1.6,5.9-3.4,6.2-3
		c1.3,1.6,0,4.9-0.6,5.4c-2.9,3-7.5,4-8.1,3.6C261.1,319.6,259.3,318.6,259.8,317.8z"/>
	<path id="path7343" sodipodi:nodetypes="cssss" class="st17" d="M272.5,322.3c-0.4-1-5,0.7-6.6,2.1c-0.4,0.4-0.6,2.2-0.3,3.6
		c0.2,0.9,6-0.3,7.5-1.5C273.6,326.1,273,323.4,272.5,322.3z"/>
</g>
</svg>
