<?xml version="1.0" ?><!DOCTYPE svg  PUBLIC '-//W3C//DTD SVG 1.1//EN'  'http://www.w3.org/Graphics/SVG/1.1/DTD/svg11.dtd'><svg enable-background="new 0 0 128 128" height="128px" id="Layer_1" version="1.1" viewBox="0 0 128 128" width="128px" xml:space="preserve" xmlns="http://www.w3.org/2000/svg" xmlns:xlink="http://www.w3.org/1999/xlink"><rect fill="#CC0000" height="78" width="128" y="25"/><g><polygon fill="#FFE000" points="20.695,51.963 14.085,56.562 16.417,48.855 10,43.991 18.05,43.826 20.695,36.221 23.338,43.826    31.389,43.991 24.972,48.855 27.305,56.562  "/><polygon fill="#FFE000" points="46.439,42.135 45.591,39.401 47.953,41.021 50.292,39.37 49.479,42.116 51.774,43.829    48.911,43.908 47.988,46.617 47.031,43.919 44.168,43.88  "/><polygon fill="#FFE000" points="38.253,62.518 37.406,59.786 39.767,61.405 42.107,59.753 41.295,62.5 43.587,64.215    40.725,64.292 39.804,67 38.846,64.303 35.984,64.264  "/><polygon fill="#FFE000" points="38.976,34.365 36.256,35.261 37.834,32.871 36.142,30.561 38.901,31.325 40.574,29 40.703,31.86    43.429,32.734 40.75,33.741 40.76,36.603  "/><polygon fill="#FFE000" points="47.972,55.167 45.621,56.801 46.45,54.062 44.168,52.332 47.031,52.273 47.972,49.568    48.911,52.273 51.774,52.332 49.493,54.062 50.321,56.801  "/></g></svg>