<svg xmlns="http://www.w3.org/2000/svg" viewBox="0 0 800 533"><path d="M0 0h800v533H0V0Z"/><path fill="#FE0000" d="M398 267c5 0 9 4 14 6l2 2a2377 2377 0 0 1 98 66 3939 3939 0 0 1 133 88 3522 3522 0 0 0 118 79l3 2a5460 5460 0 0 0 20 13l3 2 2 1 2 2 6 5H1l8-7 2-1 3-2 2-1a3222 3222 0 0 1 21-14l3-2a2660 2660 0 0 0 77-51 3516 3516 0 0 0 128-85 3944 3944 0 0 1 138-93l3-2 5-3 3-2 1-1 3-2Z"/><path fill="#003398" d="M800 0v533a1571 1571 0 0 1-31-20l-3-2a4371 4371 0 0 1-132-88 3522 3522 0 0 0-131-87 3762 3762 0 0 1-103-69l13-10 2-1a3222 3222 0 0 1 21-14l3-2a2660 2660 0 0 0 77-51 3516 3516 0 0 0 87-58 3852 3852 0 0 0 75-50l24-16 3-2a5701 5701 0 0 0 89-60l3-2 3-1Z"/><path fill="#FEFE00" d="M1 0h798l-8 7-2 1-3 2-2 1a3218 3218 0 0 1-21 14l-3 2a2829 2829 0 0 0-102 68 4233 4233 0 0 0-128 86 3924 3924 0 0 1-106 70l-9 6a7268 7268 0 0 1-7 5c-6 4-6 4-10 4l-2-2-2-1-7-5-2-1a3916 3916 0 0 1-98-65 3939 3939 0 0 1-137-92 776 776 0 0 0-51-34A3682 3682 0 0 0 12 9l-2-1-4-4-3-2-2-1V0Z"/></svg>